<?xml version="1.0" encoding="utf-8" standalone="no"?>
<!DOCTYPE svg PUBLIC "-//W3C//DTD SVG 1.1//EN"
  "http://www.w3.org/Graphics/SVG/1.1/DTD/svg11.dtd">
<svg xmlns:xlink="http://www.w3.org/1999/xlink" width="331.464235pt" height="179.484051pt" viewBox="0 0 331.464235 179.484051" xmlns="http://www.w3.org/2000/svg" version="1.1">
 <metadata>
  <rdf:RDF xmlns:dc="http://purl.org/dc/elements/1.1/" xmlns:cc="http://creativecommons.org/ns#" xmlns:rdf="http://www.w3.org/1999/02/22-rdf-syntax-ns#">
   <cc:Work>
    <dc:type rdf:resource="http://purl.org/dc/dcmitype/StillImage"/>
    <dc:date>2026-10-05T17:44:18.333071</dc:date>
    <dc:format>image/svg+xml</dc:format>
    <dc:creator>
     <cc:Agent>
      <dc:title>Matplotlib v3.11.2, https://matplotlib.org/</dc:title>
     </cc:Agent>
    </dc:creator>
   </cc:Work>
  </rdf:RDF>
 </metadata>
 <defs>
  <style type="text/css">*{stroke-linejoin: round; stroke-linecap: butt}</style>
 </defs>
 <g id="figure_1">
  <g id="patch_1">
   <path d="M 0 179.484051 
L 331.464235 179.484051 
L 331.464235 -0 
L 0 -0 
z
" style="fill: #ffffff"/>
  </g>
  <g id="axes_1">
   <g id="patch_2">
    <path d="M 33.047344 151.645984 
L 296.669391 151.645984 
L 296.669391 16.32 
L 33.047344 16.32 
z
" style="fill: #ffffff"/>
   </g>
   <g id="matplotlib.axis_1">
    <g id="xtick_1">
     <g id="line2d_1">
      <path d="M 45.030164 151.645984 
L 45.030164 16.32 
" clip-path="url(#pa4238b82c9)" style="fill: none; stroke: #b0b0b0; stroke-opacity: 0.15; stroke-width: 0.5; stroke-linecap: square"/>
     </g>
     <g id="line2d_2">
      <defs>
       <path id="m3101dc5941" d="M 0 0 
L 0 -3 
" style="stroke: #000000; stroke-width: 0.5"/>
      </defs>
      <g>
       <use xlink:href="#m3101dc5941" x="45.030164" y="151.645984" style="stroke: #000000; stroke-width: 0.5"/>
      </g>
     </g>
     <g id="line2d_3">
      <defs>
       <path id="m8cfe3e7252" d="M 0 0 
L 0 3 
" style="stroke: #000000; stroke-width: 0.5"/>
      </defs>
      <g>
       <use xlink:href="#m8cfe3e7252" x="45.030164" y="16.32" style="stroke: #000000; stroke-width: 0.5"/>
      </g>
     </g>
     <g id="text_1">
      <!-- $\mathdefault{0}$ -->
      <g transform="translate(42.817664 161.236072) scale(0.075 -0.075)">
       <defs>
        <path id="MicrosoftYaHei-16" d="M 284 2325 
Q 284 3606 709 4264 
Q 1134 4922 1941 4922 
Q 3478 4922 3478 2441 
Q 3478 1216 3045 567 
Q 2613 -81 1831 -81 
Q 1094 -81 689 534 
Q 284 1150 284 2325 
z
M 909 2353 
Q 909 425 1888 425 
Q 2850 425 2850 2384 
Q 2850 4413 1906 4413 
Q 909 4413 909 2353 
z
" transform="scale(0.015625)"/>
       </defs>
       <use xlink:href="#MicrosoftYaHei-16" transform="translate(0 0.09375)"/>
      </g>
     </g>
    </g>
    <g id="xtick_2">
     <g id="line2d_4">
      <path d="M 74.987215 151.645984 
L 74.987215 16.32 
" clip-path="url(#pa4238b82c9)" style="fill: none; stroke: #b0b0b0; stroke-opacity: 0.15; stroke-width: 0.5; stroke-linecap: square"/>
     </g>
     <g id="line2d_5">
      <g>
       <use xlink:href="#m3101dc5941" x="74.987215" y="151.645984" style="stroke: #000000; stroke-width: 0.5"/>
      </g>
     </g>
     <g id="line2d_6">
      <g>
       <use xlink:href="#m8cfe3e7252" x="74.987215" y="16.32" style="stroke: #000000; stroke-width: 0.5"/>
      </g>
     </g>
     <g id="text_2">
      <!-- $\mathdefault{1}$ -->
      <g transform="translate(72.774715 161.236072) scale(0.075 -0.075)">
       <defs>
        <path id="MicrosoftYaHei-17" d="M 1781 0 
L 1781 4141 
Q 1638 3997 1295 3819 
Q 953 3641 663 3569 
L 663 4169 
Q 1047 4275 1484 4508 
Q 1922 4741 2156 4947 
L 2388 4947 
L 2388 0 
L 1781 0 
z
" transform="scale(0.015625)"/>
       </defs>
       <use xlink:href="#MicrosoftYaHei-17" transform="translate(0 0.703125)"/>
      </g>
     </g>
    </g>
    <g id="xtick_3">
     <g id="line2d_7">
      <path d="M 104.944266 151.645984 
L 104.944266 16.32 
" clip-path="url(#pa4238b82c9)" style="fill: none; stroke: #b0b0b0; stroke-opacity: 0.15; stroke-width: 0.5; stroke-linecap: square"/>
     </g>
     <g id="line2d_8">
      <g>
       <use xlink:href="#m3101dc5941" x="104.944266" y="151.645984" style="stroke: #000000; stroke-width: 0.5"/>
      </g>
     </g>
     <g id="line2d_9">
      <g>
       <use xlink:href="#m8cfe3e7252" x="104.944266" y="16.32" style="stroke: #000000; stroke-width: 0.5"/>
      </g>
     </g>
     <g id="text_3">
      <!-- $\mathdefault{2}$ -->
      <g transform="translate(102.731766 161.236072) scale(0.075 -0.075)">
       <defs>
        <path id="MicrosoftYaHei-18" d="M 2666 3572 
Q 2666 3963 2419 4186 
Q 2172 4409 1747 4409 
Q 1447 4409 1140 4256 
Q 834 4103 569 3819 
L 569 4413 
Q 806 4659 1107 4790 
Q 1409 4922 1816 4922 
Q 2472 4922 2872 4570 
Q 3272 4219 3272 3619 
Q 3272 3084 3026 2693 
Q 2781 2303 2188 1894 
Q 1581 1475 1376 1294 
Q 1172 1113 1090 947 
Q 1009 781 1009 544 
L 3416 544 
L 3416 0 
L 372 0 
L 372 241 
Q 372 659 486 951 
Q 600 1244 862 1520 
Q 1125 1797 1681 2184 
Q 2250 2584 2458 2886 
Q 2666 3188 2666 3572 
z
" transform="scale(0.015625)"/>
       </defs>
       <use xlink:href="#MicrosoftYaHei-18" transform="translate(0 0.09375)"/>
      </g>
     </g>
    </g>
    <g id="xtick_4">
     <g id="line2d_10">
      <path d="M 134.901317 151.645984 
L 134.901317 16.32 
" clip-path="url(#pa4238b82c9)" style="fill: none; stroke: #b0b0b0; stroke-opacity: 0.15; stroke-width: 0.5; stroke-linecap: square"/>
     </g>
     <g id="line2d_11">
      <g>
       <use xlink:href="#m3101dc5941" x="134.901317" y="151.645984" style="stroke: #000000; stroke-width: 0.5"/>
      </g>
     </g>
     <g id="line2d_12">
      <g>
       <use xlink:href="#m8cfe3e7252" x="134.901317" y="16.32" style="stroke: #000000; stroke-width: 0.5"/>
      </g>
     </g>
     <g id="text_4">
      <!-- $\mathdefault{3}$ -->
      <g transform="translate(132.688817 161.236072) scale(0.075 -0.075)">
       <defs>
        <path id="MicrosoftYaHei-19" d="M 447 809 
Q 944 425 1569 425 
Q 2069 425 2361 670 
Q 2653 916 2653 1328 
Q 2653 2247 1338 2247 
L 934 2247 
L 934 2753 
L 1319 2753 
Q 2484 2753 2484 3616 
Q 2484 4413 1594 4413 
Q 1084 4413 634 4069 
L 634 4647 
Q 1109 4922 1744 4922 
Q 2363 4922 2738 4598 
Q 3113 4275 3113 3759 
Q 3113 2809 2144 2538 
L 2144 2525 
Q 2669 2469 2973 2155 
Q 3278 1841 3278 1372 
Q 3278 719 2808 319 
Q 2338 -81 1556 -81 
Q 869 -81 447 175 
L 447 809 
z
" transform="scale(0.015625)"/>
       </defs>
       <use xlink:href="#MicrosoftYaHei-19" transform="translate(0 0.09375)"/>
      </g>
     </g>
    </g>
    <g id="xtick_5">
     <g id="line2d_13">
      <path d="M 164.858367 151.645984 
L 164.858367 16.32 
" clip-path="url(#pa4238b82c9)" style="fill: none; stroke: #b0b0b0; stroke-opacity: 0.15; stroke-width: 0.5; stroke-linecap: square"/>
     </g>
     <g id="line2d_14">
      <g>
       <use xlink:href="#m3101dc5941" x="164.858367" y="151.645984" style="stroke: #000000; stroke-width: 0.5"/>
      </g>
     </g>
     <g id="line2d_15">
      <g>
       <use xlink:href="#m8cfe3e7252" x="164.858367" y="16.32" style="stroke: #000000; stroke-width: 0.5"/>
      </g>
     </g>
     <g id="text_5">
      <!-- $\mathdefault{4}$ -->
      <g transform="translate(162.645867 161.236072) scale(0.075 -0.075)">
       <defs>
        <path id="MicrosoftYaHei-1a" d="M 2906 4841 
L 2906 1644 
L 3631 1644 
L 3631 1138 
L 2906 1138 
L 2906 0 
L 2313 0 
L 2313 1138 
L 53 1138 
L 53 1616 
Q 656 2294 1265 3178 
Q 1875 4063 2272 4841 
L 2906 4841 
z
M 741 1644 
L 2313 1644 
L 2313 3950 
Q 1988 3366 1616 2817 
Q 1244 2269 741 1644 
z
" transform="scale(0.015625)"/>
       </defs>
       <use xlink:href="#MicrosoftYaHei-1a" transform="translate(0 0.359375)"/>
      </g>
     </g>
    </g>
    <g id="xtick_6">
     <g id="line2d_16">
      <path d="M 194.815418 151.645984 
L 194.815418 16.32 
" clip-path="url(#pa4238b82c9)" style="fill: none; stroke: #b0b0b0; stroke-opacity: 0.15; stroke-width: 0.5; stroke-linecap: square"/>
     </g>
     <g id="line2d_17">
      <g>
       <use xlink:href="#m3101dc5941" x="194.815418" y="151.645984" style="stroke: #000000; stroke-width: 0.5"/>
      </g>
     </g>
     <g id="line2d_18">
      <g>
       <use xlink:href="#m8cfe3e7252" x="194.815418" y="16.32" style="stroke: #000000; stroke-width: 0.5"/>
      </g>
     </g>
     <g id="text_6">
      <!-- $\mathdefault{5}$ -->
      <g transform="translate(192.602918 161.236072) scale(0.075 -0.075)">
       <defs>
        <path id="MicrosoftYaHei-1b" d="M 3294 1494 
Q 3294 784 2823 350 
Q 2353 -84 1559 -84 
Q 878 -84 544 119 
L 544 744 
Q 1034 425 1544 425 
Q 2050 425 2361 704 
Q 2672 984 2672 1447 
Q 2672 1909 2348 2167 
Q 2025 2425 1434 2425 
Q 978 2425 613 2384 
L 791 4841 
L 3053 4841 
L 3053 4303 
L 1306 4303 
L 1206 2931 
L 1647 2950 
Q 2416 2950 2855 2567 
Q 3294 2184 3294 1494 
z
" transform="scale(0.015625)"/>
       </defs>
       <use xlink:href="#MicrosoftYaHei-1b" transform="translate(0 0.359375)"/>
      </g>
     </g>
    </g>
    <g id="xtick_7">
     <g id="line2d_19">
      <path d="M 224.772469 151.645984 
L 224.772469 16.32 
" clip-path="url(#pa4238b82c9)" style="fill: none; stroke: #b0b0b0; stroke-opacity: 0.15; stroke-width: 0.5; stroke-linecap: square"/>
     </g>
     <g id="line2d_20">
      <g>
       <use xlink:href="#m3101dc5941" x="224.772469" y="151.645984" style="stroke: #000000; stroke-width: 0.5"/>
      </g>
     </g>
     <g id="line2d_21">
      <g>
       <use xlink:href="#m8cfe3e7252" x="224.772469" y="16.32" style="stroke: #000000; stroke-width: 0.5"/>
      </g>
     </g>
     <g id="text_7">
      <!-- $\mathdefault{6}$ -->
      <g transform="translate(222.559969 161.236072) scale(0.075 -0.075)">
       <defs>
        <path id="MicrosoftYaHei-1c" d="M 3181 4219 
Q 2803 4413 2391 4413 
Q 1763 4413 1381 3866 
Q 1000 3319 994 2372 
L 1009 2372 
Q 1353 3038 2106 3038 
Q 2734 3038 3109 2628 
Q 3484 2219 3484 1541 
Q 3484 831 3051 375 
Q 2619 -81 1947 -81 
Q 1209 -81 789 495 
Q 369 1072 369 2131 
Q 369 3413 920 4167 
Q 1472 4922 2372 4922 
Q 2888 4922 3181 4781 
L 3181 4219 
z
M 1031 1584 
Q 1031 1106 1286 765 
Q 1541 425 1963 425 
Q 2363 425 2613 719 
Q 2863 1013 2863 1475 
Q 2863 1975 2627 2253 
Q 2391 2531 1956 2531 
Q 1544 2531 1287 2250 
Q 1031 1969 1031 1584 
z
" transform="scale(0.015625)"/>
       </defs>
       <use xlink:href="#MicrosoftYaHei-1c" transform="translate(0 0.09375)"/>
      </g>
     </g>
    </g>
    <g id="xtick_8">
     <g id="line2d_22">
      <path d="M 254.72952 151.645984 
L 254.72952 16.32 
" clip-path="url(#pa4238b82c9)" style="fill: none; stroke: #b0b0b0; stroke-opacity: 0.15; stroke-width: 0.5; stroke-linecap: square"/>
     </g>
     <g id="line2d_23">
      <g>
       <use xlink:href="#m3101dc5941" x="254.72952" y="151.645984" style="stroke: #000000; stroke-width: 0.5"/>
      </g>
     </g>
     <g id="line2d_24">
      <g>
       <use xlink:href="#m8cfe3e7252" x="254.72952" y="16.32" style="stroke: #000000; stroke-width: 0.5"/>
      </g>
     </g>
     <g id="text_8">
      <!-- $\mathdefault{7}$ -->
      <g transform="translate(252.51702 161.236072) scale(0.075 -0.075)">
       <defs>
        <path id="MicrosoftYaHei-1d" d="M 3422 4463 
Q 2659 3131 2223 1998 
Q 1788 866 1684 0 
L 1047 0 
Q 1163 853 1594 1947 
Q 2025 3041 2747 4300 
L 347 4300 
L 347 4841 
L 3422 4841 
L 3422 4463 
z
" transform="scale(0.015625)"/>
       </defs>
       <use xlink:href="#MicrosoftYaHei-1d" transform="translate(0 0.359375)"/>
      </g>
     </g>
    </g>
    <g id="xtick_9">
     <g id="line2d_25">
      <path d="M 284.686571 151.645984 
L 284.686571 16.32 
" clip-path="url(#pa4238b82c9)" style="fill: none; stroke: #b0b0b0; stroke-opacity: 0.15; stroke-width: 0.5; stroke-linecap: square"/>
     </g>
     <g id="line2d_26">
      <g>
       <use xlink:href="#m3101dc5941" x="284.686571" y="151.645984" style="stroke: #000000; stroke-width: 0.5"/>
      </g>
     </g>
     <g id="line2d_27">
      <g>
       <use xlink:href="#m8cfe3e7252" x="284.686571" y="16.32" style="stroke: #000000; stroke-width: 0.5"/>
      </g>
     </g>
     <g id="text_9">
      <!-- $\mathdefault{8}$ -->
      <g transform="translate(282.474071 161.236072) scale(0.075 -0.075)">
       <defs>
        <path id="MicrosoftYaHei-1e" d="M 306 1350 
Q 306 1769 556 2122 
Q 806 2475 1200 2625 
Q 884 2803 700 3081 
Q 516 3359 516 3684 
Q 516 4028 692 4312 
Q 869 4597 1183 4759 
Q 1497 4922 1875 4922 
Q 2256 4922 2572 4761 
Q 2888 4600 3063 4315 
Q 3238 4031 3238 3684 
Q 3238 3366 3058 3086 
Q 2878 2806 2559 2625 
Q 2953 2472 3200 2119 
Q 3447 1766 3447 1350 
Q 3447 938 3250 611 
Q 3053 284 2690 103 
Q 2328 -78 1875 -78 
Q 1425 -78 1065 103 
Q 706 284 506 612 
Q 306 941 306 1350 
z
M 906 1378 
Q 906 947 1172 687 
Q 1438 428 1878 428 
Q 2309 428 2582 692 
Q 2856 956 2856 1378 
Q 2856 1778 2579 2051 
Q 2303 2325 1878 2325 
Q 1456 2325 1181 2058 
Q 906 1791 906 1378 
z
M 1081 3634 
Q 1081 3309 1312 3076 
Q 1544 2844 1878 2844 
Q 2206 2844 2445 3078 
Q 2684 3313 2684 3634 
Q 2684 3963 2454 4191 
Q 2225 4419 1878 4419 
Q 1534 4419 1307 4195 
Q 1081 3972 1081 3634 
z
" transform="scale(0.015625)"/>
       </defs>
       <use xlink:href="#MicrosoftYaHei-1e" transform="translate(0 0.09375)"/>
      </g>
     </g>
    </g>
    <g id="xtick_10">
     <g id="line2d_28">
      <defs>
       <path id="med6711d484" d="M 0 0 
L 0 -1.5 
" style="stroke: #000000; stroke-width: 0.5"/>
      </defs>
      <g>
       <use xlink:href="#med6711d484" x="33.047344" y="151.645984" style="stroke: #000000; stroke-width: 0.5"/>
      </g>
     </g>
     <g id="line2d_29">
      <defs>
       <path id="m4366d178c8" d="M 0 0 
L 0 1.5 
" style="stroke: #000000; stroke-width: 0.5"/>
      </defs>
      <g>
       <use xlink:href="#m4366d178c8" x="33.047344" y="16.32" style="stroke: #000000; stroke-width: 0.5"/>
      </g>
     </g>
    </g>
    <g id="xtick_11">
     <g id="line2d_30">
      <g>
       <use xlink:href="#med6711d484" x="39.038754" y="151.645984" style="stroke: #000000; stroke-width: 0.5"/>
      </g>
     </g>
     <g id="line2d_31">
      <g>
       <use xlink:href="#m4366d178c8" x="39.038754" y="16.32" style="stroke: #000000; stroke-width: 0.5"/>
      </g>
     </g>
    </g>
    <g id="xtick_12">
     <g id="line2d_32">
      <g>
       <use xlink:href="#med6711d484" x="51.021574" y="151.645984" style="stroke: #000000; stroke-width: 0.5"/>
      </g>
     </g>
     <g id="line2d_33">
      <g>
       <use xlink:href="#m4366d178c8" x="51.021574" y="16.32" style="stroke: #000000; stroke-width: 0.5"/>
      </g>
     </g>
    </g>
    <g id="xtick_13">
     <g id="line2d_34">
      <g>
       <use xlink:href="#med6711d484" x="57.012984" y="151.645984" style="stroke: #000000; stroke-width: 0.5"/>
      </g>
     </g>
     <g id="line2d_35">
      <g>
       <use xlink:href="#m4366d178c8" x="57.012984" y="16.32" style="stroke: #000000; stroke-width: 0.5"/>
      </g>
     </g>
    </g>
    <g id="xtick_14">
     <g id="line2d_36">
      <g>
       <use xlink:href="#med6711d484" x="63.004395" y="151.645984" style="stroke: #000000; stroke-width: 0.5"/>
      </g>
     </g>
     <g id="line2d_37">
      <g>
       <use xlink:href="#m4366d178c8" x="63.004395" y="16.32" style="stroke: #000000; stroke-width: 0.5"/>
      </g>
     </g>
    </g>
    <g id="xtick_15">
     <g id="line2d_38">
      <g>
       <use xlink:href="#med6711d484" x="68.995805" y="151.645984" style="stroke: #000000; stroke-width: 0.5"/>
      </g>
     </g>
     <g id="line2d_39">
      <g>
       <use xlink:href="#m4366d178c8" x="68.995805" y="16.32" style="stroke: #000000; stroke-width: 0.5"/>
      </g>
     </g>
    </g>
    <g id="xtick_16">
     <g id="line2d_40">
      <g>
       <use xlink:href="#med6711d484" x="80.978625" y="151.645984" style="stroke: #000000; stroke-width: 0.5"/>
      </g>
     </g>
     <g id="line2d_41">
      <g>
       <use xlink:href="#m4366d178c8" x="80.978625" y="16.32" style="stroke: #000000; stroke-width: 0.5"/>
      </g>
     </g>
    </g>
    <g id="xtick_17">
     <g id="line2d_42">
      <g>
       <use xlink:href="#med6711d484" x="86.970035" y="151.645984" style="stroke: #000000; stroke-width: 0.5"/>
      </g>
     </g>
     <g id="line2d_43">
      <g>
       <use xlink:href="#m4366d178c8" x="86.970035" y="16.32" style="stroke: #000000; stroke-width: 0.5"/>
      </g>
     </g>
    </g>
    <g id="xtick_18">
     <g id="line2d_44">
      <g>
       <use xlink:href="#med6711d484" x="92.961445" y="151.645984" style="stroke: #000000; stroke-width: 0.5"/>
      </g>
     </g>
     <g id="line2d_45">
      <g>
       <use xlink:href="#m4366d178c8" x="92.961445" y="16.32" style="stroke: #000000; stroke-width: 0.5"/>
      </g>
     </g>
    </g>
    <g id="xtick_19">
     <g id="line2d_46">
      <g>
       <use xlink:href="#med6711d484" x="98.952856" y="151.645984" style="stroke: #000000; stroke-width: 0.5"/>
      </g>
     </g>
     <g id="line2d_47">
      <g>
       <use xlink:href="#m4366d178c8" x="98.952856" y="16.32" style="stroke: #000000; stroke-width: 0.5"/>
      </g>
     </g>
    </g>
    <g id="xtick_20">
     <g id="line2d_48">
      <g>
       <use xlink:href="#med6711d484" x="110.935676" y="151.645984" style="stroke: #000000; stroke-width: 0.5"/>
      </g>
     </g>
     <g id="line2d_49">
      <g>
       <use xlink:href="#m4366d178c8" x="110.935676" y="16.32" style="stroke: #000000; stroke-width: 0.5"/>
      </g>
     </g>
    </g>
    <g id="xtick_21">
     <g id="line2d_50">
      <g>
       <use xlink:href="#med6711d484" x="116.927086" y="151.645984" style="stroke: #000000; stroke-width: 0.5"/>
      </g>
     </g>
     <g id="line2d_51">
      <g>
       <use xlink:href="#m4366d178c8" x="116.927086" y="16.32" style="stroke: #000000; stroke-width: 0.5"/>
      </g>
     </g>
    </g>
    <g id="xtick_22">
     <g id="line2d_52">
      <g>
       <use xlink:href="#med6711d484" x="122.918496" y="151.645984" style="stroke: #000000; stroke-width: 0.5"/>
      </g>
     </g>
     <g id="line2d_53">
      <g>
       <use xlink:href="#m4366d178c8" x="122.918496" y="16.32" style="stroke: #000000; stroke-width: 0.5"/>
      </g>
     </g>
    </g>
    <g id="xtick_23">
     <g id="line2d_54">
      <g>
       <use xlink:href="#med6711d484" x="128.909906" y="151.645984" style="stroke: #000000; stroke-width: 0.5"/>
      </g>
     </g>
     <g id="line2d_55">
      <g>
       <use xlink:href="#m4366d178c8" x="128.909906" y="16.32" style="stroke: #000000; stroke-width: 0.5"/>
      </g>
     </g>
    </g>
    <g id="xtick_24">
     <g id="line2d_56">
      <g>
       <use xlink:href="#med6711d484" x="140.892727" y="151.645984" style="stroke: #000000; stroke-width: 0.5"/>
      </g>
     </g>
     <g id="line2d_57">
      <g>
       <use xlink:href="#m4366d178c8" x="140.892727" y="16.32" style="stroke: #000000; stroke-width: 0.5"/>
      </g>
     </g>
    </g>
    <g id="xtick_25">
     <g id="line2d_58">
      <g>
       <use xlink:href="#med6711d484" x="146.884137" y="151.645984" style="stroke: #000000; stroke-width: 0.5"/>
      </g>
     </g>
     <g id="line2d_59">
      <g>
       <use xlink:href="#m4366d178c8" x="146.884137" y="16.32" style="stroke: #000000; stroke-width: 0.5"/>
      </g>
     </g>
    </g>
    <g id="xtick_26">
     <g id="line2d_60">
      <g>
       <use xlink:href="#med6711d484" x="152.875547" y="151.645984" style="stroke: #000000; stroke-width: 0.5"/>
      </g>
     </g>
     <g id="line2d_61">
      <g>
       <use xlink:href="#m4366d178c8" x="152.875547" y="16.32" style="stroke: #000000; stroke-width: 0.5"/>
      </g>
     </g>
    </g>
    <g id="xtick_27">
     <g id="line2d_62">
      <g>
       <use xlink:href="#med6711d484" x="158.866957" y="151.645984" style="stroke: #000000; stroke-width: 0.5"/>
      </g>
     </g>
     <g id="line2d_63">
      <g>
       <use xlink:href="#m4366d178c8" x="158.866957" y="16.32" style="stroke: #000000; stroke-width: 0.5"/>
      </g>
     </g>
    </g>
    <g id="xtick_28">
     <g id="line2d_64">
      <g>
       <use xlink:href="#med6711d484" x="170.849778" y="151.645984" style="stroke: #000000; stroke-width: 0.5"/>
      </g>
     </g>
     <g id="line2d_65">
      <g>
       <use xlink:href="#m4366d178c8" x="170.849778" y="16.32" style="stroke: #000000; stroke-width: 0.5"/>
      </g>
     </g>
    </g>
    <g id="xtick_29">
     <g id="line2d_66">
      <g>
       <use xlink:href="#med6711d484" x="176.841188" y="151.645984" style="stroke: #000000; stroke-width: 0.5"/>
      </g>
     </g>
     <g id="line2d_67">
      <g>
       <use xlink:href="#m4366d178c8" x="176.841188" y="16.32" style="stroke: #000000; stroke-width: 0.5"/>
      </g>
     </g>
    </g>
    <g id="xtick_30">
     <g id="line2d_68">
      <g>
       <use xlink:href="#med6711d484" x="182.832598" y="151.645984" style="stroke: #000000; stroke-width: 0.5"/>
      </g>
     </g>
     <g id="line2d_69">
      <g>
       <use xlink:href="#m4366d178c8" x="182.832598" y="16.32" style="stroke: #000000; stroke-width: 0.5"/>
      </g>
     </g>
    </g>
    <g id="xtick_31">
     <g id="line2d_70">
      <g>
       <use xlink:href="#med6711d484" x="188.824008" y="151.645984" style="stroke: #000000; stroke-width: 0.5"/>
      </g>
     </g>
     <g id="line2d_71">
      <g>
       <use xlink:href="#m4366d178c8" x="188.824008" y="16.32" style="stroke: #000000; stroke-width: 0.5"/>
      </g>
     </g>
    </g>
    <g id="xtick_32">
     <g id="line2d_72">
      <g>
       <use xlink:href="#med6711d484" x="200.806828" y="151.645984" style="stroke: #000000; stroke-width: 0.5"/>
      </g>
     </g>
     <g id="line2d_73">
      <g>
       <use xlink:href="#m4366d178c8" x="200.806828" y="16.32" style="stroke: #000000; stroke-width: 0.5"/>
      </g>
     </g>
    </g>
    <g id="xtick_33">
     <g id="line2d_74">
      <g>
       <use xlink:href="#med6711d484" x="206.798239" y="151.645984" style="stroke: #000000; stroke-width: 0.5"/>
      </g>
     </g>
     <g id="line2d_75">
      <g>
       <use xlink:href="#m4366d178c8" x="206.798239" y="16.32" style="stroke: #000000; stroke-width: 0.5"/>
      </g>
     </g>
    </g>
    <g id="xtick_34">
     <g id="line2d_76">
      <g>
       <use xlink:href="#med6711d484" x="212.789649" y="151.645984" style="stroke: #000000; stroke-width: 0.5"/>
      </g>
     </g>
     <g id="line2d_77">
      <g>
       <use xlink:href="#m4366d178c8" x="212.789649" y="16.32" style="stroke: #000000; stroke-width: 0.5"/>
      </g>
     </g>
    </g>
    <g id="xtick_35">
     <g id="line2d_78">
      <g>
       <use xlink:href="#med6711d484" x="218.781059" y="151.645984" style="stroke: #000000; stroke-width: 0.5"/>
      </g>
     </g>
     <g id="line2d_79">
      <g>
       <use xlink:href="#m4366d178c8" x="218.781059" y="16.32" style="stroke: #000000; stroke-width: 0.5"/>
      </g>
     </g>
    </g>
    <g id="xtick_36">
     <g id="line2d_80">
      <g>
       <use xlink:href="#med6711d484" x="230.763879" y="151.645984" style="stroke: #000000; stroke-width: 0.5"/>
      </g>
     </g>
     <g id="line2d_81">
      <g>
       <use xlink:href="#m4366d178c8" x="230.763879" y="16.32" style="stroke: #000000; stroke-width: 0.5"/>
      </g>
     </g>
    </g>
    <g id="xtick_37">
     <g id="line2d_82">
      <g>
       <use xlink:href="#med6711d484" x="236.755289" y="151.645984" style="stroke: #000000; stroke-width: 0.5"/>
      </g>
     </g>
     <g id="line2d_83">
      <g>
       <use xlink:href="#m4366d178c8" x="236.755289" y="16.32" style="stroke: #000000; stroke-width: 0.5"/>
      </g>
     </g>
    </g>
    <g id="xtick_38">
     <g id="line2d_84">
      <g>
       <use xlink:href="#med6711d484" x="242.7467" y="151.645984" style="stroke: #000000; stroke-width: 0.5"/>
      </g>
     </g>
     <g id="line2d_85">
      <g>
       <use xlink:href="#m4366d178c8" x="242.7467" y="16.32" style="stroke: #000000; stroke-width: 0.5"/>
      </g>
     </g>
    </g>
    <g id="xtick_39">
     <g id="line2d_86">
      <g>
       <use xlink:href="#med6711d484" x="248.73811" y="151.645984" style="stroke: #000000; stroke-width: 0.5"/>
      </g>
     </g>
     <g id="line2d_87">
      <g>
       <use xlink:href="#m4366d178c8" x="248.73811" y="16.32" style="stroke: #000000; stroke-width: 0.5"/>
      </g>
     </g>
    </g>
    <g id="xtick_40">
     <g id="line2d_88">
      <g>
       <use xlink:href="#med6711d484" x="260.72093" y="151.645984" style="stroke: #000000; stroke-width: 0.5"/>
      </g>
     </g>
     <g id="line2d_89">
      <g>
       <use xlink:href="#m4366d178c8" x="260.72093" y="16.32" style="stroke: #000000; stroke-width: 0.5"/>
      </g>
     </g>
    </g>
    <g id="xtick_41">
     <g id="line2d_90">
      <g>
       <use xlink:href="#med6711d484" x="266.71234" y="151.645984" style="stroke: #000000; stroke-width: 0.5"/>
      </g>
     </g>
     <g id="line2d_91">
      <g>
       <use xlink:href="#m4366d178c8" x="266.71234" y="16.32" style="stroke: #000000; stroke-width: 0.5"/>
      </g>
     </g>
    </g>
    <g id="xtick_42">
     <g id="line2d_92">
      <g>
       <use xlink:href="#med6711d484" x="272.70375" y="151.645984" style="stroke: #000000; stroke-width: 0.5"/>
      </g>
     </g>
     <g id="line2d_93">
      <g>
       <use xlink:href="#m4366d178c8" x="272.70375" y="16.32" style="stroke: #000000; stroke-width: 0.5"/>
      </g>
     </g>
    </g>
    <g id="xtick_43">
     <g id="line2d_94">
      <g>
       <use xlink:href="#med6711d484" x="278.695161" y="151.645984" style="stroke: #000000; stroke-width: 0.5"/>
      </g>
     </g>
     <g id="line2d_95">
      <g>
       <use xlink:href="#m4366d178c8" x="278.695161" y="16.32" style="stroke: #000000; stroke-width: 0.5"/>
      </g>
     </g>
    </g>
    <g id="xtick_44">
     <g id="line2d_96">
      <g>
       <use xlink:href="#med6711d484" x="290.677981" y="151.645984" style="stroke: #000000; stroke-width: 0.5"/>
      </g>
     </g>
     <g id="line2d_97">
      <g>
       <use xlink:href="#m4366d178c8" x="290.677981" y="16.32" style="stroke: #000000; stroke-width: 0.5"/>
      </g>
     </g>
    </g>
    <g id="xtick_45">
     <g id="line2d_98">
      <g>
       <use xlink:href="#med6711d484" x="296.669391" y="151.645984" style="stroke: #000000; stroke-width: 0.5"/>
      </g>
     </g>
     <g id="line2d_99">
      <g>
       <use xlink:href="#m4366d178c8" x="296.669391" y="16.32" style="stroke: #000000; stroke-width: 0.5"/>
      </g>
     </g>
    </g>
    <g id="text_10">
     <!-- 名额柔化参数 $\lambda$ -->
     <g transform="translate(137.298367 173.856707) scale(0.08 -0.08)">
      <defs>
       <path id="MicrosoftYaHei-564" d="M 2406 5328 
L 2894 5128 
Q 2688 4853 2475 4603 
L 5669 4603 
L 5669 4159 
Q 4506 2828 2600 1978 
L 5656 1978 
L 5656 -866 
L 5156 -866 
L 5156 -459 
L 1863 -459 
L 1863 -866 
L 1363 -866 
L 1363 1478 
Q 875 1297 350 1122 
Q 213 1359 63 1584 
Q 1463 1966 2588 2516 
Q 2200 2909 1750 3322 
L 2125 3647 
Q 2650 3178 3088 2778 
Q 4188 3384 5000 4172 
L 2094 4172 
Q 1388 3403 481 2753 
Q 306 2984 156 3159 
Q 1394 3966 2406 5328 
z
M 5156 1528 
L 1863 1528 
L 1863 -22 
L 5156 -22 
L 5156 1528 
z
" transform="scale(0.015625)"/>
       <path id="MicrosoftYaHei-bcc" d="M 863 2484 
L 1094 2834 
Q 1463 2653 1794 2491 
Q 2119 2809 2344 3203 
L 1125 3203 
Q 794 2659 419 2247 
Q 281 2397 125 2547 
Q 719 3172 1100 4072 
L 1513 3934 
Q 1425 3747 1331 3578 
L 2844 3578 
L 2844 3222 
Q 2588 2703 2194 2291 
Q 2738 2016 3194 1778 
L 2938 1372 
Q 2406 1678 1850 1978 
Q 1381 1597 763 1322 
L 2756 1322 
L 2756 -684 
L 2344 -684 
L 2344 -416 
L 1063 -416 
L 1063 -734 
L 650 -734 
L 650 1272 
Q 463 1197 269 1128 
Q 188 1297 63 1509 
Q 869 1766 1444 2191 
Q 1156 2334 863 2484 
z
M 3369 3728 
L 4281 3728 
L 4425 4516 
L 3244 4516 
L 3244 4941 
L 6231 4941 
L 6231 4516 
L 4906 4516 
L 4738 3728 
L 6038 3728 
L 6038 591 
L 5600 591 
L 5600 3303 
L 3806 3303 
L 3806 591 
L 3369 591 
L 3369 3728 
z
M 4481 2916 
L 4931 2916 
Q 4944 1322 4788 709 
Q 5688 78 6356 -453 
L 6044 -853 
Q 5438 -303 4619 291 
Q 4231 -416 3169 -916 
Q 3044 -734 2869 -516 
Q 4019 -3 4294 716 
Q 4519 1216 4481 2916 
z
M 250 4591 
L 1538 4591 
Q 1413 4872 1244 5172 
L 1650 5347 
Q 1881 4916 2031 4591 
L 3138 4591 
L 3138 3709 
L 2713 3709 
L 2713 4216 
L 675 4216 
L 675 3709 
L 250 3709 
L 250 4591 
z
M 2344 934 
L 1063 934 
L 1063 -28 
L 2344 -28 
L 2344 934 
z
" transform="scale(0.015625)"/>
       <path id="MicrosoftYaHei-7f0" d="M 381 3228 
L 381 3641 
L 3494 3641 
Q 2613 3909 1763 4159 
L 1988 4528 
Q 2684 4306 3353 4075 
L 4694 4647 
L 825 4647 
L 825 5059 
L 5550 5059 
L 5550 4616 
L 3822 3909 
Q 3956 3863 4088 3816 
L 3950 3641 
L 5975 3641 
L 5975 3216 
L 5400 2141 
L 4956 2309 
L 5469 3228 
L 3925 3228 
L 3925 2678 
Q 3925 1928 3131 1928 
Q 2806 1928 2463 1941 
Q 2438 2191 2388 2416 
Q 2719 2378 3063 2378 
Q 3463 2378 3463 2703 
L 3463 3228 
L 3213 3228 
Q 2150 2366 588 1841 
Q 469 2078 338 2272 
Q 1578 2600 2600 3228 
L 381 3228 
z
M 6250 -147 
Q 6094 -353 5919 -634 
Q 4356 -122 3456 853 
L 3456 -872 
L 2981 -872 
L 2981 884 
Q 2047 -16 425 -672 
Q 263 -447 69 -241 
Q 1550 231 2600 1022 
L 213 1022 
L 213 1447 
L 2981 1447 
L 2981 1809 
L 3456 1809 
L 3456 1447 
L 6213 1447 
L 6213 1022 
L 3763 1022 
Q 4747 163 6250 -147 
z
" transform="scale(0.015625)"/>
       <path id="MicrosoftYaHei-517" d="M 1844 1453 
Q 2663 1834 3375 2331 
L 3375 5197 
L 3913 5197 
L 3913 2734 
Q 4869 3506 5613 4516 
L 6069 4184 
Q 5159 2975 3913 2069 
L 3913 303 
Q 3913 -122 4363 -122 
L 5156 -122 
Q 5581 -122 5650 284 
Q 5738 709 5763 1266 
Q 6025 1166 6313 1084 
Q 6263 559 6181 122 
Q 6063 -597 5281 -597 
L 4225 -597 
Q 3375 -597 3375 241 
L 3375 1703 
Q 2791 1328 2144 1016 
Q 2013 1222 1844 1453 
z
M 88 2222 
Q 1175 3666 1688 5291 
L 2231 5134 
Q 1934 4359 1588 3675 
L 1588 -797 
L 1063 -797 
L 1063 2734 
Q 716 2172 325 1678 
Q 219 1947 88 2222 
z
" transform="scale(0.015625)"/>
       <path id="MicrosoftYaHei-540" d="M 256 3159 
L 2234 3159 
Q 2428 3391 2600 3641 
Q 2031 3609 1469 3578 
Q 1288 3566 988 3522 
L 825 4003 
Q 1144 4091 1400 4291 
Q 1944 4697 2606 5372 
L 3100 5109 
Q 2394 4497 1738 4034 
Q 2906 4066 4397 4122 
Q 4072 4388 3744 4628 
L 4050 4947 
Q 5006 4278 5606 3772 
L 5256 3397 
Q 5053 3575 4853 3747 
Q 3778 3700 2719 3647 
L 3069 3497 
Q 2944 3322 2813 3159 
L 6144 3159 
L 6144 2741 
L 4353 2741 
Q 5128 1941 6325 1578 
Q 6119 1297 6000 1109 
Q 4644 1697 3828 2741 
L 2453 2741 
Q 1550 1750 363 1116 
Q 231 1328 56 1509 
Q 1091 2009 1841 2741 
L 256 2741 
L 256 3159 
z
M 4969 1016 
L 5313 697 
Q 3525 -509 1019 -891 
Q 906 -666 781 -478 
Q 3331 -59 4969 1016 
z
M 4231 1703 
L 4525 1353 
Q 2813 391 1119 47 
Q 988 341 913 466 
Q 2694 828 4231 1703 
z
M 3556 2453 
L 3863 2128 
Q 2694 1397 1388 1009 
Q 1288 1216 1150 1422 
Q 2344 1734 3556 2453 
z
" transform="scale(0.015625)"/>
       <path id="MicrosoftYaHei-783" d="M 4175 5303 
L 4675 5228 
Q 4544 4622 4369 4097 
L 6281 4097 
L 6281 3672 
L 5888 3672 
Q 5731 1834 5088 753 
Q 5594 66 6375 -372 
Q 6175 -647 6038 -866 
Q 5275 -372 4769 309 
Q 4194 -403 3400 -928 
Q 3263 -747 3044 -534 
Q 3919 41 4463 772 
Q 3956 1647 3794 2791 
Q 3663 2559 3519 2359 
Q 3394 2541 3206 2759 
Q 3931 3803 4175 5303 
z
M 150 1697 
L 1100 1697 
Q 1238 1934 1369 2184 
L 1819 2041 
Q 1719 1866 1619 1697 
L 3150 1697 
L 3150 1291 
Q 2913 678 2431 216 
Q 2775 53 3131 -109 
L 2856 -541 
Q 2469 -322 2050 -103 
Q 1344 -609 269 -903 
Q 169 -703 56 -466 
Q 969 -259 1600 128 
Q 1063 403 475 691 
Q 675 978 863 1284 
L 150 1284 
L 150 1697 
z
M 219 3847 
L 1656 3847 
L 1656 5247 
L 2119 5247 
L 2119 3847 
L 3319 3847 
L 3319 3434 
L 2119 3434 
L 2119 3053 
L 2306 3266 
Q 2888 2841 3281 2516 
L 2981 2166 
Q 2638 2491 2119 2897 
L 2119 2184 
L 1656 2184 
L 1656 3059 
Q 1088 2466 331 2016 
Q 213 2197 63 2397 
Q 850 2822 1506 3434 
L 219 3434 
L 219 3847 
z
M 5388 3672 
L 4219 3672 
Q 4188 3591 4150 3516 
Q 4263 2191 4775 1247 
Q 5275 2159 5388 3672 
z
M 1088 834 
Q 1531 634 2000 416 
Q 2431 784 2675 1284 
L 1375 1284 
Q 1231 1053 1088 834 
z
M 3038 5091 
L 3425 4834 
Q 3081 4384 2738 4003 
Q 2594 4128 2400 4266 
Q 2725 4647 3038 5091 
z
M 381 4816 
L 738 5059 
Q 1019 4716 1319 4322 
L 931 4047 
Q 656 4453 381 4816 
z
" transform="scale(0.015625)"/>
       <path id="MicrosoftYaHei-3" transform="scale(0.015625)"/>
       <path id="DejaVuSans-Oblique-34f" d="M 2350 4316 
L 3125 0 
L 2516 0 
L 2038 2588 
L 328 0 
L -281 0 
L 1903 3356 
L 1794 3975 
Q 1725 4369 1391 4369 
L 1091 4369 
L 1184 4863 
L 1550 4856 
Q 2253 4847 2350 4316 
z
" transform="scale(0.015625)"/>
      </defs>
      <use xlink:href="#MicrosoftYaHei-564" transform="translate(0 0.0625)"/>
      <use xlink:href="#MicrosoftYaHei-bcc" transform="translate(100 0.0625)"/>
      <use xlink:href="#MicrosoftYaHei-7f0" transform="translate(200 0.0625)"/>
      <use xlink:href="#MicrosoftYaHei-517" transform="translate(300 0.0625)"/>
      <use xlink:href="#MicrosoftYaHei-540" transform="translate(400 0.0625)"/>
      <use xlink:href="#MicrosoftYaHei-783" transform="translate(500 0.0625)"/>
      <use xlink:href="#MicrosoftYaHei-3" transform="translate(600 0.0625)"/>
      <use xlink:href="#DejaVuSans-Oblique-34f" transform="translate(629.589844 0.0625)"/>
     </g>
    </g>
   </g>
   <g id="matplotlib.axis_2">
    <g id="ytick_1">
     <g id="line2d_100">
      <path d="M 33.047344 136.523098 
L 296.669391 136.523098 
" clip-path="url(#pa4238b82c9)" style="fill: none; stroke: #b0b0b0; stroke-opacity: 0.15; stroke-width: 0.5; stroke-linecap: square"/>
     </g>
     <g id="line2d_101">
      <defs>
       <path id="mfe59d895c9" d="M 0 0 
L 3 0 
" style="stroke: #000000; stroke-width: 0.5"/>
      </defs>
      <g>
       <use xlink:href="#mfe59d895c9" x="33.047344" y="136.523098" style="stroke: #000000; stroke-width: 0.5"/>
      </g>
     </g>
     <g id="text_11">
      <!-- $\mathdefault{160}$ -->
      <g style="fill: #0f4d92" transform="translate(16.347344 139.568142) scale(0.075 -0.075)">
       <use xlink:href="#MicrosoftYaHei-17" transform="translate(0 0.703125)"/>
       <use xlink:href="#MicrosoftYaHei-1c" transform="translate(58.642578 0.703125)"/>
       <use xlink:href="#MicrosoftYaHei-16" transform="translate(117.285156 0.703125)"/>
      </g>
     </g>
    </g>
    <g id="ytick_2">
     <g id="line2d_102">
      <path d="M 33.047344 112.851052 
L 296.669391 112.851052 
" clip-path="url(#pa4238b82c9)" style="fill: none; stroke: #b0b0b0; stroke-opacity: 0.15; stroke-width: 0.5; stroke-linecap: square"/>
     </g>
     <g id="line2d_103">
      <g>
       <use xlink:href="#mfe59d895c9" x="33.047344" y="112.851052" style="stroke: #000000; stroke-width: 0.5"/>
      </g>
     </g>
     <g id="text_12">
      <!-- $\mathdefault{170}$ -->
      <g style="fill: #0f4d92" transform="translate(16.347344 115.896096) scale(0.075 -0.075)">
       <use xlink:href="#MicrosoftYaHei-17" transform="translate(0 0.703125)"/>
       <use xlink:href="#MicrosoftYaHei-1d" transform="translate(58.642578 0.703125)"/>
       <use xlink:href="#MicrosoftYaHei-16" transform="translate(117.285156 0.703125)"/>
      </g>
     </g>
    </g>
    <g id="ytick_3">
     <g id="line2d_104">
      <path d="M 33.047344 89.179006 
L 296.669391 89.179006 
" clip-path="url(#pa4238b82c9)" style="fill: none; stroke: #b0b0b0; stroke-opacity: 0.15; stroke-width: 0.5; stroke-linecap: square"/>
     </g>
     <g id="line2d_105">
      <g>
       <use xlink:href="#mfe59d895c9" x="33.047344" y="89.179006" style="stroke: #000000; stroke-width: 0.5"/>
      </g>
     </g>
     <g id="text_13">
      <!-- $\mathdefault{180}$ -->
      <g style="fill: #0f4d92" transform="translate(16.347344 92.22405) scale(0.075 -0.075)">
       <use xlink:href="#MicrosoftYaHei-17" transform="translate(0 0.703125)"/>
       <use xlink:href="#MicrosoftYaHei-1e" transform="translate(58.642578 0.703125)"/>
       <use xlink:href="#MicrosoftYaHei-16" transform="translate(117.285156 0.703125)"/>
      </g>
     </g>
    </g>
    <g id="ytick_4">
     <g id="line2d_106">
      <path d="M 33.047344 65.50696 
L 296.669391 65.50696 
" clip-path="url(#pa4238b82c9)" style="fill: none; stroke: #b0b0b0; stroke-opacity: 0.15; stroke-width: 0.5; stroke-linecap: square"/>
     </g>
     <g id="line2d_107">
      <g>
       <use xlink:href="#mfe59d895c9" x="33.047344" y="65.50696" style="stroke: #000000; stroke-width: 0.5"/>
      </g>
     </g>
     <g id="text_14">
      <!-- $\mathdefault{190}$ -->
      <g style="fill: #0f4d92" transform="translate(16.347344 68.552004) scale(0.075 -0.075)">
       <defs>
        <path id="MicrosoftYaHei-1f" d="M 578 656 
Q 978 425 1441 425 
Q 2091 425 2448 937 
Q 2806 1450 2806 2394 
Q 2800 2388 2794 2394 
Q 2475 1788 1722 1788 
Q 1113 1788 713 2206 
Q 313 2625 313 3294 
Q 313 4006 750 4464 
Q 1188 4922 1884 4922 
Q 2606 4922 3012 4355 
Q 3419 3788 3419 2703 
Q 3419 1363 2894 641 
Q 2369 -81 1441 -81 
Q 931 -81 578 84 
L 578 656 
z
M 931 3372 
Q 931 2884 1181 2598 
Q 1431 2313 1872 2313 
Q 2253 2313 2512 2573 
Q 2772 2834 2772 3206 
Q 2772 3728 2514 4070 
Q 2256 4413 1834 4413 
Q 1444 4413 1187 4116 
Q 931 3819 931 3372 
z
" transform="scale(0.015625)"/>
       </defs>
       <use xlink:href="#MicrosoftYaHei-17" transform="translate(0 0.703125)"/>
       <use xlink:href="#MicrosoftYaHei-1f" transform="translate(58.642578 0.703125)"/>
       <use xlink:href="#MicrosoftYaHei-16" transform="translate(117.285156 0.703125)"/>
      </g>
     </g>
    </g>
    <g id="ytick_5">
     <g id="line2d_108">
      <path d="M 33.047344 41.834915 
L 296.669391 41.834915 
" clip-path="url(#pa4238b82c9)" style="fill: none; stroke: #b0b0b0; stroke-opacity: 0.15; stroke-width: 0.5; stroke-linecap: square"/>
     </g>
     <g id="line2d_109">
      <g>
       <use xlink:href="#mfe59d895c9" x="33.047344" y="41.834915" style="stroke: #000000; stroke-width: 0.5"/>
      </g>
     </g>
     <g id="text_15">
      <!-- $\mathdefault{200}$ -->
      <g style="fill: #0f4d92" transform="translate(16.347344 44.879959) scale(0.075 -0.075)">
       <use xlink:href="#MicrosoftYaHei-18" transform="translate(0 0.09375)"/>
       <use xlink:href="#MicrosoftYaHei-16" transform="translate(58.642578 0.09375)"/>
       <use xlink:href="#MicrosoftYaHei-16" transform="translate(117.285156 0.09375)"/>
      </g>
     </g>
    </g>
    <g id="ytick_6">
     <g id="line2d_110">
      <path d="M 33.047344 18.162869 
L 296.669391 18.162869 
" clip-path="url(#pa4238b82c9)" style="fill: none; stroke: #b0b0b0; stroke-opacity: 0.15; stroke-width: 0.5; stroke-linecap: square"/>
     </g>
     <g id="line2d_111">
      <g>
       <use xlink:href="#mfe59d895c9" x="33.047344" y="18.162869" style="stroke: #000000; stroke-width: 0.5"/>
      </g>
     </g>
     <g id="text_16">
      <!-- $\mathdefault{210}$ -->
      <g style="fill: #0f4d92" transform="translate(16.347344 21.207913) scale(0.075 -0.075)">
       <use xlink:href="#MicrosoftYaHei-18" transform="translate(0 0.703125)"/>
       <use xlink:href="#MicrosoftYaHei-17" transform="translate(58.642578 0.703125)"/>
       <use xlink:href="#MicrosoftYaHei-16" transform="translate(117.285156 0.703125)"/>
      </g>
     </g>
    </g>
    <g id="ytick_7">
     <g id="line2d_112">
      <defs>
       <path id="m5eabee3db8" d="M 0 0 
L 1.5 0 
" style="stroke: #000000; stroke-width: 0.5"/>
      </defs>
      <g>
       <use xlink:href="#m5eabee3db8" x="33.047344" y="150.726325" style="stroke: #000000; stroke-width: 0.5"/>
      </g>
     </g>
    </g>
    <g id="ytick_8">
     <g id="line2d_113">
      <g>
       <use xlink:href="#m5eabee3db8" x="33.047344" y="145.991916" style="stroke: #000000; stroke-width: 0.5"/>
      </g>
     </g>
    </g>
    <g id="ytick_9">
     <g id="line2d_114">
      <g>
       <use xlink:href="#m5eabee3db8" x="33.047344" y="141.257507" style="stroke: #000000; stroke-width: 0.5"/>
      </g>
     </g>
    </g>
    <g id="ytick_10">
     <g id="line2d_115">
      <g>
       <use xlink:href="#m5eabee3db8" x="33.047344" y="131.788689" style="stroke: #000000; stroke-width: 0.5"/>
      </g>
     </g>
    </g>
    <g id="ytick_11">
     <g id="line2d_116">
      <g>
       <use xlink:href="#m5eabee3db8" x="33.047344" y="127.054279" style="stroke: #000000; stroke-width: 0.5"/>
      </g>
     </g>
    </g>
    <g id="ytick_12">
     <g id="line2d_117">
      <g>
       <use xlink:href="#m5eabee3db8" x="33.047344" y="122.31987" style="stroke: #000000; stroke-width: 0.5"/>
      </g>
     </g>
    </g>
    <g id="ytick_13">
     <g id="line2d_118">
      <g>
       <use xlink:href="#m5eabee3db8" x="33.047344" y="117.585461" style="stroke: #000000; stroke-width: 0.5"/>
      </g>
     </g>
    </g>
    <g id="ytick_14">
     <g id="line2d_119">
      <g>
       <use xlink:href="#m5eabee3db8" x="33.047344" y="108.116643" style="stroke: #000000; stroke-width: 0.5"/>
      </g>
     </g>
    </g>
    <g id="ytick_15">
     <g id="line2d_120">
      <g>
       <use xlink:href="#m5eabee3db8" x="33.047344" y="103.382234" style="stroke: #000000; stroke-width: 0.5"/>
      </g>
     </g>
    </g>
    <g id="ytick_16">
     <g id="line2d_121">
      <g>
       <use xlink:href="#m5eabee3db8" x="33.047344" y="98.647825" style="stroke: #000000; stroke-width: 0.5"/>
      </g>
     </g>
    </g>
    <g id="ytick_17">
     <g id="line2d_122">
      <g>
       <use xlink:href="#m5eabee3db8" x="33.047344" y="93.913415" style="stroke: #000000; stroke-width: 0.5"/>
      </g>
     </g>
    </g>
    <g id="ytick_18">
     <g id="line2d_123">
      <g>
       <use xlink:href="#m5eabee3db8" x="33.047344" y="84.444597" style="stroke: #000000; stroke-width: 0.5"/>
      </g>
     </g>
    </g>
    <g id="ytick_19">
     <g id="line2d_124">
      <g>
       <use xlink:href="#m5eabee3db8" x="33.047344" y="79.710188" style="stroke: #000000; stroke-width: 0.5"/>
      </g>
     </g>
    </g>
    <g id="ytick_20">
     <g id="line2d_125">
      <g>
       <use xlink:href="#m5eabee3db8" x="33.047344" y="74.975779" style="stroke: #000000; stroke-width: 0.5"/>
      </g>
     </g>
    </g>
    <g id="ytick_21">
     <g id="line2d_126">
      <g>
       <use xlink:href="#m5eabee3db8" x="33.047344" y="70.24137" style="stroke: #000000; stroke-width: 0.5"/>
      </g>
     </g>
    </g>
    <g id="ytick_22">
     <g id="line2d_127">
      <g>
       <use xlink:href="#m5eabee3db8" x="33.047344" y="60.772551" style="stroke: #000000; stroke-width: 0.5"/>
      </g>
     </g>
    </g>
    <g id="ytick_23">
     <g id="line2d_128">
      <g>
       <use xlink:href="#m5eabee3db8" x="33.047344" y="56.038142" style="stroke: #000000; stroke-width: 0.5"/>
      </g>
     </g>
    </g>
    <g id="ytick_24">
     <g id="line2d_129">
      <g>
       <use xlink:href="#m5eabee3db8" x="33.047344" y="51.303733" style="stroke: #000000; stroke-width: 0.5"/>
      </g>
     </g>
    </g>
    <g id="ytick_25">
     <g id="line2d_130">
      <g>
       <use xlink:href="#m5eabee3db8" x="33.047344" y="46.569324" style="stroke: #000000; stroke-width: 0.5"/>
      </g>
     </g>
    </g>
    <g id="ytick_26">
     <g id="line2d_131">
      <g>
       <use xlink:href="#m5eabee3db8" x="33.047344" y="37.100505" style="stroke: #000000; stroke-width: 0.5"/>
      </g>
     </g>
    </g>
    <g id="ytick_27">
     <g id="line2d_132">
      <g>
       <use xlink:href="#m5eabee3db8" x="33.047344" y="32.366096" style="stroke: #000000; stroke-width: 0.5"/>
      </g>
     </g>
    </g>
    <g id="ytick_28">
     <g id="line2d_133">
      <g>
       <use xlink:href="#m5eabee3db8" x="33.047344" y="27.631687" style="stroke: #000000; stroke-width: 0.5"/>
      </g>
     </g>
    </g>
    <g id="ytick_29">
     <g id="line2d_134">
      <g>
       <use xlink:href="#m5eabee3db8" x="33.047344" y="22.897278" style="stroke: #000000; stroke-width: 0.5"/>
      </g>
     </g>
    </g>
    <g id="text_17">
     <!-- 总完成时间 $T$ / 分钟 -->
     <g style="fill: #0f4d92" transform="translate(10.32 119.702992) rotate(-90) scale(0.08 -0.08)">
      <defs>
       <path id="MicrosoftYaHei-6c8" d="M 900 4253 
L 3631 4253 
Q 4022 4822 4331 5353 
L 4813 5103 
Q 4500 4675 4175 4253 
L 5500 4253 
L 5500 1703 
L 5000 1703 
L 5000 1978 
L 1400 1978 
L 1400 1703 
L 900 1703 
L 900 4253 
z
M 5000 3803 
L 1400 3803 
L 1400 2428 
L 5000 2428 
L 5000 3803 
z
M 1694 1378 
L 2181 1378 
L 2181 284 
Q 2181 -203 2619 -203 
L 3875 -203 
Q 4244 -203 4338 172 
Q 4394 366 4450 872 
Q 4631 791 4931 684 
Q 4850 209 4750 -97 
Q 4556 -641 3900 -641 
L 2519 -641 
Q 1694 -641 1694 197 
L 1694 1378 
z
M 719 1422 
L 1188 1272 
Q 931 491 538 -334 
Q 338 -247 81 -134 
Q 444 597 719 1422 
z
M 4881 1203 
L 5238 1478 
Q 5813 841 6319 197 
L 5900 -134 
Q 5456 491 4881 1203 
z
M 2663 1591 
L 3044 1841 
Q 3488 1372 3863 841 
L 3444 547 
Q 3069 1109 2663 1591 
z
M 1594 5109 
L 1975 5353 
Q 2350 4959 2650 4541 
L 2225 4266 
Q 1956 4653 1594 5109 
z
" transform="scale(0.015625)"/>
       <path id="MicrosoftYaHei-60f" d="M 275 1959 
L 6150 1959 
L 6150 1516 
L 4131 1516 
L 4131 191 
Q 4131 -222 4538 -222 
L 5200 -222 
Q 5625 -222 5675 65 
Q 5725 353 5744 884 
Q 5969 797 6294 697 
Q 6250 184 6181 -141 
Q 6094 -678 5425 -678 
L 4406 -678 
Q 3625 -678 3625 122 
L 3625 1516 
L 2503 1516 
Q 2488 -247 438 -834 
Q 313 -628 125 -372 
Q 1975 78 2006 1516 
L 275 1516 
L 275 1959 
z
M 325 4534 
L 3000 4534 
Q 2878 4788 2688 5128 
L 3175 5353 
Q 3422 4878 3575 4534 
L 6075 4534 
L 6075 3384 
L 5563 3384 
L 5563 4091 
L 838 4091 
L 838 3384 
L 325 3384 
L 325 4534 
z
M 1050 3253 
L 5450 3253 
L 5450 2816 
L 1050 2816 
L 1050 3253 
z
" transform="scale(0.015625)"/>
       <path id="MicrosoftYaHei-6e8" d="M 2750 -347 
Q 3472 138 4038 781 
Q 3675 1703 3609 3759 
L 1250 3759 
L 1250 2809 
L 3050 2809 
Q 3013 1616 2950 803 
Q 2875 -59 2113 -59 
Q 1856 -59 1431 -34 
Q 1394 197 1331 484 
Q 1769 422 2063 422 
Q 2425 422 2469 922 
Q 2519 1497 2544 2347 
L 1247 2347 
Q 1197 175 369 -866 
Q 213 -653 44 -434 
Q 750 503 750 2528 
L 750 4222 
L 3591 4222 
Q 3569 4716 3550 5291 
L 4069 5291 
Q 4066 4850 4084 4222 
L 6238 4222 
L 6238 3759 
L 4100 3759 
Q 4163 2078 4409 1247 
Q 5016 2069 5406 3109 
L 5900 2903 
Q 5363 1631 4609 691 
Q 5069 -244 5506 -244 
Q 5666 -244 5750 47 
Q 5838 503 5888 984 
Q 6156 878 6363 809 
Q 6269 141 6156 -284 
Q 6038 -741 5631 -778 
Q 5250 -803 4900 -522 
Q 4522 -231 4256 278 
Q 3728 -291 3106 -722 
Q 2944 -534 2750 -347 
z
M 4544 4984 
L 4806 5309 
Q 5331 5009 5788 4684 
L 5488 4309 
Q 5038 4666 4544 4984 
z
" transform="scale(0.015625)"/>
       <path id="MicrosoftYaHei-79e" d="M 344 4728 
L 2500 4728 
L 2500 -366 
L 2006 -366 
L 2006 153 
L 838 153 
L 838 -441 
L 344 -441 
L 344 4728 
z
M 2706 3941 
L 4925 3941 
L 4925 5322 
L 5425 5322 
L 5425 3941 
L 6313 3941 
L 6313 3478 
L 5425 3478 
L 5425 116 
Q 5425 -722 4625 -722 
Q 4263 -722 3563 -703 
Q 3531 -478 3463 -178 
Q 4119 -228 4488 -228 
Q 4925 -228 4925 216 
L 4925 3478 
L 2706 3478 
L 2706 3941 
z
M 838 616 
L 2006 616 
L 2006 2234 
L 838 2234 
L 838 616 
z
M 2006 4266 
L 838 4266 
L 838 2684 
L 2006 2684 
L 2006 4266 
z
M 3406 2878 
Q 3906 1966 4163 1422 
Q 4000 1347 3663 1172 
Q 3419 1766 2963 2653 
L 3406 2878 
z
" transform="scale(0.015625)"/>
       <path id="MicrosoftYaHei-b7f" d="M 1863 3647 
L 4513 3647 
L 4513 553 
L 2313 553 
L 2313 166 
L 1863 166 
L 1863 3647 
z
M 2388 4453 
L 2388 4922 
L 6013 4922 
L 6013 -28 
Q 6013 -816 5119 -816 
Q 4756 -816 4169 -803 
Q 4144 -616 4069 -297 
Q 4588 -334 5056 -334 
Q 5525 -334 5525 122 
L 5525 4453 
L 2388 4453 
z
M 419 4084 
L 906 4084 
L 906 -816 
L 419 -816 
L 419 4084 
z
M 2313 997 
L 4063 997 
L 4063 1884 
L 2313 1884 
L 2313 997 
z
M 4063 3203 
L 2313 3203 
L 2313 2328 
L 4063 2328 
L 4063 3203 
z
M 744 5003 
L 1100 5322 
Q 1575 4872 1981 4447 
L 1575 4091 
Q 1194 4541 744 5003 
z
" transform="scale(0.015625)"/>
       <path id="DejaVuSans-Oblique-37" d="M 378 4666 
L 4325 4666 
L 4225 4134 
L 2559 4134 
L 1759 0 
L 1125 0 
L 1925 4134 
L 275 4134 
L 378 4666 
z
" transform="scale(0.015625)"/>
       <path id="MicrosoftYaHei-15" d="M 2791 4841 
L 469 -803 
L -103 -803 
L 2219 4841 
L 2791 4841 
z
" transform="scale(0.015625)"/>
       <path id="MicrosoftYaHei-4e3" d="M 900 2559 
L 5056 2559 
Q 5025 1497 4963 484 
Q 4888 -684 3856 -678 
Q 3350 -684 2788 -647 
Q 2750 -384 2700 -116 
Q 3181 -184 3775 -191 
Q 4400 -203 4463 541 
Q 4513 1216 4538 2097 
L 2616 2097 
Q 2541 1053 2181 416 
Q 1706 -422 588 -878 
Q 425 -666 231 -459 
Q 1269 -72 1725 666 
Q 2053 1225 2103 2097 
L 900 2097 
L 900 2559 
z
M 3488 5159 
L 3938 5353 
Q 4625 3678 6350 2847 
Q 6069 2553 5944 2372 
Q 4225 3366 3488 5159 
z
M 50 2766 
Q 1338 3678 2250 5253 
L 2694 5009 
Q 1744 3347 413 2341 
Q 281 2534 50 2766 
z
" transform="scale(0.015625)"/>
       <path id="MicrosoftYaHei-b55" d="M 2663 4091 
L 4094 4091 
L 4094 5303 
L 4569 5303 
L 4569 4091 
L 6000 4091 
L 6000 1091 
L 5538 1091 
L 5538 1384 
L 4569 1384 
L 4569 -822 
L 4094 -822 
L 4094 1384 
L 3125 1384 
L 3125 1091 
L 2663 1091 
L 2663 4091 
z
M 2294 566 
Q 2294 291 2325 47 
Q 1925 -147 1394 -466 
Q 1281 -528 1131 -678 
L 800 -247 
Q 1000 -53 1000 222 
L 1000 1584 
L 144 1584 
L 144 2016 
L 1000 2016 
L 1000 2859 
L 563 2859 
L 563 3281 
Q 444 3094 319 2903 
Q 200 3128 56 3328 
Q 700 4278 1056 5341 
L 1525 5184 
Q 1363 4781 1166 4378 
L 2388 4378 
L 2388 3947 
L 944 3947 
Q 769 3619 566 3291 
L 2238 3291 
L 2238 2859 
L 1456 2859 
L 1456 2016 
L 2388 2016 
L 2388 1584 
L 1456 1584 
L 1456 97 
Q 1913 341 2294 566 
z
M 5538 3653 
L 4569 3653 
L 4569 1822 
L 5538 1822 
L 5538 3653 
z
M 3125 1822 
L 4094 1822 
L 4094 3653 
L 3125 3653 
L 3125 1822 
z
" transform="scale(0.015625)"/>
      </defs>
      <use xlink:href="#MicrosoftYaHei-6c8" transform="translate(0 0.359375)"/>
      <use xlink:href="#MicrosoftYaHei-60f" transform="translate(100 0.359375)"/>
      <use xlink:href="#MicrosoftYaHei-6e8" transform="translate(200 0.359375)"/>
      <use xlink:href="#MicrosoftYaHei-79e" transform="translate(300 0.359375)"/>
      <use xlink:href="#MicrosoftYaHei-b7f" transform="translate(400 0.359375)"/>
      <use xlink:href="#MicrosoftYaHei-3" transform="translate(500 0.359375)"/>
      <use xlink:href="#DejaVuSans-Oblique-37" transform="translate(529.589844 0.359375)"/>
      <use xlink:href="#MicrosoftYaHei-3" transform="translate(590.673828 0.359375)"/>
      <use xlink:href="#MicrosoftYaHei-15" transform="translate(620.263672 0.359375)"/>
      <use xlink:href="#MicrosoftYaHei-3" transform="translate(662.988281 0.359375)"/>
      <use xlink:href="#MicrosoftYaHei-4e3" transform="translate(692.578125 0.359375)"/>
      <use xlink:href="#MicrosoftYaHei-b55" transform="translate(792.578125 0.359375)"/>
     </g>
    </g>
   </g>
   <g id="line2d_135">
    <path d="M 45.030164 145.494803 
L 52.519427 125.373564 
L 60.008689 93.487319 
L 74.987215 22.471181 
L 104.944266 22.471181 
L 164.858367 22.471181 
L 284.686571 22.471181 
" clip-path="url(#pa4238b82c9)" style="fill: none; stroke: #0f4d92; stroke-width: 1.6; stroke-linecap: square"/>
    <defs>
     <path id="me8cf390d35" d="M 0 1.75 
C 0.464105 1.75 0.909265 1.565609 1.237437 1.237437 
C 1.565609 0.909265 1.75 0.464105 1.75 0 
C 1.75 -0.464105 1.565609 -0.909265 1.237437 -1.237437 
C 0.909265 -1.565609 0.464105 -1.75 0 -1.75 
C -0.464105 -1.75 -0.909265 -1.565609 -1.237437 -1.237437 
C -1.565609 -0.909265 -1.75 -0.464105 -1.75 0 
C -1.75 0.464105 -1.565609 0.909265 -1.237437 1.237437 
C -0.909265 1.565609 -0.464105 1.75 0 1.75 
z
" style="stroke: #0f4d92"/>
    </defs>
    <g clip-path="url(#pa4238b82c9)">
     <use xlink:href="#me8cf390d35" x="45.030164" y="145.494803" style="fill: #0f4d92; stroke: #0f4d92"/>
     <use xlink:href="#me8cf390d35" x="52.519427" y="125.373564" style="fill: #0f4d92; stroke: #0f4d92"/>
     <use xlink:href="#me8cf390d35" x="60.008689" y="93.487319" style="fill: #0f4d92; stroke: #0f4d92"/>
     <use xlink:href="#me8cf390d35" x="74.987215" y="22.471181" style="fill: #0f4d92; stroke: #0f4d92"/>
     <use xlink:href="#me8cf390d35" x="104.944266" y="22.471181" style="fill: #0f4d92; stroke: #0f4d92"/>
     <use xlink:href="#me8cf390d35" x="164.858367" y="22.471181" style="fill: #0f4d92; stroke: #0f4d92"/>
     <use xlink:href="#me8cf390d35" x="284.686571" y="22.471181" style="fill: #0f4d92; stroke: #0f4d92"/>
    </g>
   </g>
   <g id="patch_3">
    <path d="M 33.047344 151.645984 
L 33.047344 16.32 
" style="fill: none; stroke: #000000; stroke-width: 0.5; stroke-linejoin: miter; stroke-linecap: square"/>
   </g>
   <g id="patch_4">
    <path d="M 296.669391 151.645984 
L 296.669391 16.32 
" style="fill: none; stroke: #000000; stroke-width: 0.5; stroke-linejoin: miter; stroke-linecap: square"/>
   </g>
   <g id="patch_5">
    <path d="M 33.047344 151.645984 
L 296.669391 151.645984 
" style="fill: none; stroke: #000000; stroke-width: 0.5; stroke-linejoin: miter; stroke-linecap: square"/>
   </g>
   <g id="patch_6">
    <path d="M 33.047344 16.32 
L 296.669391 16.32 
" style="fill: none; stroke: #000000; stroke-width: 0.5; stroke-linejoin: miter; stroke-linecap: square"/>
   </g>
   <g id="text_18">
    <!-- $T$ 上升而 Gini 下降：两个目标不一致 -->
    <g transform="translate(99.258367 10.32) scale(0.08 -0.08)">
     <defs>
      <path id="MicrosoftYaHei-407" d="M 163 47 
L 2613 47 
L 2613 5209 
L 3181 5209 
L 3181 3328 
L 5750 3328 
L 5750 2828 
L 3181 2828 
L 3181 47 
L 6244 47 
L 6244 -453 
L 163 -453 
L 163 47 
z
" transform="scale(0.015625)"/>
      <path id="MicrosoftYaHei-51f" d="M 144 2809 
L 1769 2809 
L 1769 4309 
Q 1113 4244 369 4184 
Q 338 4403 281 4659 
Q 2238 4803 3663 5047 
L 3781 4566 
Q 3106 4459 2281 4366 
L 2281 2809 
L 4275 2809 
L 4275 5284 
L 4788 5284 
L 4788 2809 
L 6275 2809 
L 6275 2322 
L 4788 2322 
L 4788 -784 
L 4275 -784 
L 4275 2322 
L 2278 2322 
Q 2263 1019 1956 441 
Q 1619 -241 625 -866 
Q 513 -716 275 -428 
Q 1213 153 1500 709 
Q 1756 1169 1769 2322 
L 144 2322 
L 144 2809 
z
" transform="scale(0.015625)"/>
      <path id="MicrosoftYaHei-9f2" d="M 519 3453 
L 2625 3453 
Q 2763 3966 2875 4484 
L 188 4484 
L 188 4947 
L 6200 4947 
L 6200 4484 
L 3431 4484 
Q 3281 3950 3116 3453 
L 5850 3453 
L 5850 -59 
Q 5850 -778 5200 -778 
Q 4794 -778 4381 -759 
Q 4313 -316 4288 -241 
Q 4700 -284 5031 -284 
Q 5369 -284 5369 59 
L 5369 2991 
L 4213 2991 
L 4213 -453 
L 3744 -453 
L 3744 2991 
L 2606 2991 
L 2606 -453 
L 2138 -453 
L 2138 2991 
L 1000 2991 
L 1000 -816 
L 519 -816 
L 519 3453 
z
" transform="scale(0.015625)"/>
      <path id="MicrosoftYaHei-2d" d="M 4284 331 
Q 3559 -81 2647 -81 
Q 1597 -81 955 583 
Q 313 1247 313 2356 
Q 313 3478 1022 4200 
Q 1731 4922 2841 4922 
Q 3625 4922 4169 4672 
L 4169 3997 
Q 3588 4363 2784 4363 
Q 1994 4363 1481 3822 
Q 969 3281 969 2397 
Q 969 1488 1441 981 
Q 1913 475 2716 475 
Q 3269 475 3656 688 
L 3656 1997 
L 2606 1997 
L 2606 2550 
L 4284 2550 
L 4284 331 
z
" transform="scale(0.015625)"/>
      <path id="MicrosoftYaHei-4f" d="M 472 4675 
Q 472 4838 583 4948 
Q 694 5059 856 5059 
Q 1022 5059 1136 4950 
Q 1250 4841 1250 4675 
Q 1250 4513 1136 4405 
Q 1022 4297 856 4297 
Q 691 4297 581 4405 
Q 472 4513 472 4675 
z
M 544 0 
L 544 3456 
L 1156 3456 
L 1156 0 
L 544 0 
z
" transform="scale(0.015625)"/>
      <path id="MicrosoftYaHei-54" d="M 3469 0 
L 2859 0 
L 2859 1966 
Q 2859 3031 2081 3031 
Q 1678 3031 1418 2731 
Q 1159 2431 1159 1972 
L 1159 0 
L 547 0 
L 547 3456 
L 1159 3456 
L 1159 2884 
L 1172 2884 
Q 1563 3538 2306 3538 
Q 2875 3538 3172 3173 
Q 3469 2809 3469 2113 
L 3469 0 
z
" transform="scale(0.015625)"/>
      <path id="MicrosoftYaHei-408" d="M 163 4803 
L 6238 4803 
L 6238 4291 
L 3200 4291 
L 3200 2928 
L 3488 3328 
Q 4919 2484 5888 1809 
L 5519 1303 
Q 4550 2047 3200 2872 
L 3200 -797 
L 2631 -797 
L 2631 4291 
L 163 4291 
L 163 4803 
z
" transform="scale(0.015625)"/>
      <path id="MicrosoftYaHei-b91" d="M 2263 3616 
Q 3000 4322 3494 5309 
L 3919 5122 
Q 3803 4919 3688 4728 
L 5788 4728 
L 5788 4303 
Q 5403 3681 4713 3213 
Q 5269 2972 6325 2803 
Q 6294 2728 6125 2353 
Q 4900 2594 4247 2934 
Q 3481 2525 2419 2259 
Q 2319 2491 2194 2672 
Q 3122 2863 3828 3206 
Q 3438 3519 3156 3953 
Q 2878 3591 2588 3297 
Q 2444 3466 2263 3616 
z
M 2181 1678 
Q 2344 509 1588 334 
Q 1388 291 1044 328 
Q 975 597 906 834 
Q 1213 753 1419 784 
Q 1844 859 1706 1678 
Q 1594 2303 1206 2803 
Q 1481 3703 1688 4472 
L 869 4472 
L 869 -841 
L 400 -841 
L 400 4909 
L 2200 4909 
L 2200 4472 
Q 1806 3222 1700 2884 
Q 2094 2316 2181 1678 
z
M 2925 584 
L 4125 584 
L 4125 1591 
L 2500 1591 
L 2500 2016 
L 4125 2016 
L 4125 2597 
L 4594 2597 
L 4594 2016 
L 6088 2016 
L 6088 1591 
L 4594 1591 
L 4594 584 
L 6138 584 
L 6138 159 
L 4594 159 
L 4594 -847 
L 4125 -847 
L 4125 159 
L 2456 159 
L 2456 616 
L 2700 1422 
L 3169 1422 
L 2925 584 
z
M 5244 4303 
L 3422 4303 
Q 3806 3753 4269 3450 
Q 4850 3813 5244 4303 
z
" transform="scale(0.015625)"/>
      <path id="MicrosoftYaHei-379" d="M 1606 3531 
Q 1772 3531 1890 3415 
Q 2009 3300 2009 3138 
Q 2009 2975 1893 2858 
Q 1778 2741 1606 2741 
Q 1434 2741 1318 2858 
Q 1203 2975 1203 3138 
Q 1203 3300 1322 3415 
Q 1441 3531 1606 3531 
z
M 1606 716 
Q 1772 716 1890 600 
Q 2009 484 2009 319 
Q 2009 150 1890 36 
Q 1772 -78 1606 -78 
Q 1441 -78 1322 36 
Q 1203 150 1203 319 
Q 1203 484 1322 600 
Q 1441 716 1606 716 
z
" transform="scale(0.015625)"/>
      <path id="MicrosoftYaHei-414" d="M 163 4991 
L 6238 4991 
L 6238 4534 
L 4325 4534 
Q 4328 4084 4316 3697 
L 5856 3697 
L 5856 3 
Q 5856 -716 5138 -716 
Q 4800 -716 4181 -703 
Q 4150 -484 4094 -216 
Q 4688 -259 4994 -259 
Q 5388 -259 5388 122 
L 5388 3247 
L 4297 3247 
Q 4269 2634 4172 2138 
Q 4859 1500 5325 966 
L 5000 616 
Q 4519 1194 4038 1678 
Q 3734 834 3050 147 
Q 2913 303 2663 484 
Q 3844 1559 3844 3247 
L 2538 3247 
Q 2506 2591 2444 2316 
Q 2956 1897 3288 1603 
L 3013 1191 
Q 2675 1541 2325 1869 
Q 2044 1025 1381 334 
Q 1231 503 1019 691 
Q 2056 1653 2084 3247 
L 1000 3247 
L 1000 -747 
L 531 -747 
L 531 3697 
L 2103 3697 
Q 2116 4091 2113 4534 
L 163 4534 
L 163 4991 
z
M 2556 3697 
L 3863 3697 
Q 3875 4094 3872 4534 
L 2569 4534 
Q 2569 4084 2556 3697 
z
" transform="scale(0.015625)"/>
      <path id="MicrosoftYaHei-417" d="M 2913 3028 
L 3481 3028 
L 3481 -841 
L 2913 -841 
L 2913 3028 
z
M 3600 5178 
L 3506 5034 
Q 4519 3366 6319 2647 
Q 6125 2341 5988 2084 
Q 4150 3047 3206 4566 
Q 2281 3122 400 1997 
Q 263 2222 81 2491 
Q 2031 3572 2981 5178 
L 3600 5178 
z
" transform="scale(0.015625)"/>
      <path id="MicrosoftYaHei-929" d="M 944 5016 
L 5469 5016 
L 5469 -772 
L 4938 -772 
L 4938 -303 
L 1475 -303 
L 1475 -772 
L 944 -772 
L 944 5016 
z
M 1475 1341 
L 1475 159 
L 4938 159 
L 4938 1341 
L 1475 1341 
z
M 1475 2947 
L 1475 1778 
L 4938 1778 
L 4938 2947 
L 1475 2947 
z
M 1475 4553 
L 1475 3384 
L 4938 3384 
L 4938 4553 
L 1475 4553 
z
" transform="scale(0.015625)"/>
      <path id="MicrosoftYaHei-7f6" d="M 75 1409 
Q 769 2478 1025 3647 
L 119 3647 
L 119 4072 
L 1069 4072 
L 1069 5297 
L 1506 5297 
L 1506 4072 
L 2356 4072 
L 2356 3647 
L 1506 3647 
L 1506 2541 
L 1775 2822 
Q 2175 2478 2481 2159 
L 2150 1816 
Q 1850 2156 1506 2503 
L 1506 -797 
L 1069 -797 
L 1069 2588 
Q 738 1513 281 859 
Q 194 1128 75 1409 
z
M 2350 3097 
L 6250 3097 
L 6250 2659 
L 4525 2659 
L 4525 47 
Q 4525 -734 3806 -734 
Q 3469 -741 2975 -728 
Q 2944 -503 2888 -209 
Q 3319 -259 3675 -259 
Q 4050 -259 4050 203 
L 4050 2659 
L 2350 2659 
L 2350 3097 
z
M 2638 4928 
L 5963 4928 
L 5963 4491 
L 2638 4491 
L 2638 4928 
z
M 4938 1853 
L 5381 2066 
Q 5975 928 6369 72 
L 5869 -147 
Q 5463 822 4938 1853 
z
M 2931 2066 
L 3400 1878 
Q 2888 734 2381 -153 
Q 2188 -41 1925 66 
Q 2425 872 2931 2066 
z
" transform="scale(0.015625)"/>
      <path id="MicrosoftYaHei-409" d="M 225 4772 
L 6181 4772 
L 6181 4284 
L 3881 4284 
Q 3581 3766 3081 3053 
L 3444 3053 
L 3444 -866 
L 2906 -866 
L 2906 2859 
Q 1838 1541 388 609 
Q 231 834 38 1059 
Q 2006 2291 3213 4284 
L 225 4284 
L 225 4772 
z
M 4069 2859 
Q 5238 2147 6325 1409 
L 5969 916 
Q 4681 1872 3763 2434 
L 4069 2859 
z
" transform="scale(0.015625)"/>
      <path id="MicrosoftYaHei-25b2" d="M 100 2703 
L 6313 2703 
L 6313 2153 
L 100 2153 
L 100 2703 
z
" transform="scale(0.015625)"/>
      <path id="MicrosoftYaHei-a1a" d="M 3006 3053 
Q 3606 4109 3994 5366 
L 4450 5209 
Q 4269 4694 4066 4216 
L 6213 4216 
L 6213 3772 
L 5638 3772 
Q 5575 1784 4875 725 
Q 5463 47 6344 -353 
Q 6138 -603 5963 -809 
Q 5088 -306 4572 316 
Q 4044 -306 3025 -872 
Q 2925 -716 2713 -453 
Q 3778 94 4284 697 
Q 3663 1581 3509 3078 
Q 3409 2897 3306 2722 
Q 3194 2859 3006 3053 
z
M 188 4978 
L 3138 4978 
L 3138 4534 
L 1706 4534 
Q 1266 3628 938 3097 
Q 1694 3134 2288 3169 
Q 2116 3544 1931 3909 
L 2325 4097 
Q 2763 3278 3119 2478 
Q 2875 2359 2675 2266 
Q 2575 2516 2469 2763 
Q 1550 2691 856 2622 
Q 606 2578 413 2516 
L 181 2947 
Q 406 3072 556 3297 
Q 863 3791 1191 4534 
L 188 4534 
L 188 4978 
z
M 106 47 
Q 738 106 1388 175 
L 1388 1234 
L 244 1234 
L 244 1678 
L 1388 1678 
L 1388 2459 
L 1875 2459 
L 1875 1678 
L 3063 1678 
L 3063 1234 
L 1875 1234 
L 1875 231 
Q 2488 303 3119 384 
Q 3125 253 3150 -59 
Q 1813 -241 231 -434 
L 106 47 
z
M 4575 1109 
Q 5109 2028 5153 3772 
L 3891 3772 
Q 3978 1997 4575 1109 
z
" transform="scale(0.015625)"/>
     </defs>
     <use xlink:href="#DejaVuSans-Oblique-37" transform="translate(0 0.15625)"/>
     <use xlink:href="#MicrosoftYaHei-3" transform="translate(61.083984 0.15625)"/>
     <use xlink:href="#MicrosoftYaHei-407" transform="translate(90.673828 0.15625)"/>
     <use xlink:href="#MicrosoftYaHei-51f" transform="translate(190.673828 0.15625)"/>
     <use xlink:href="#MicrosoftYaHei-9f2" transform="translate(290.673828 0.15625)"/>
     <use xlink:href="#MicrosoftYaHei-3" transform="translate(390.673828 0.15625)"/>
     <use xlink:href="#MicrosoftYaHei-2d" transform="translate(420.263672 0.15625)"/>
     <use xlink:href="#MicrosoftYaHei-4f" transform="translate(494.628906 0.15625)"/>
     <use xlink:href="#MicrosoftYaHei-54" transform="translate(521.240234 0.15625)"/>
     <use xlink:href="#MicrosoftYaHei-4f" transform="translate(582.861328 0.15625)"/>
     <use xlink:href="#MicrosoftYaHei-3" transform="translate(609.472656 0.15625)"/>
     <use xlink:href="#MicrosoftYaHei-408" transform="translate(639.0625 0.15625)"/>
     <use xlink:href="#MicrosoftYaHei-b91" transform="translate(739.0625 0.15625)"/>
     <use xlink:href="#MicrosoftYaHei-379" transform="translate(839.0625 0.15625)"/>
     <use xlink:href="#MicrosoftYaHei-414" transform="translate(939.0625 0.15625)"/>
     <use xlink:href="#MicrosoftYaHei-417" transform="translate(1039.0625 0.15625)"/>
     <use xlink:href="#MicrosoftYaHei-929" transform="translate(1139.0625 0.15625)"/>
     <use xlink:href="#MicrosoftYaHei-7f6" transform="translate(1239.0625 0.15625)"/>
     <use xlink:href="#MicrosoftYaHei-409" transform="translate(1339.0625 0.15625)"/>
     <use xlink:href="#MicrosoftYaHei-25b2" transform="translate(1439.0625 0.15625)"/>
     <use xlink:href="#MicrosoftYaHei-a1a" transform="translate(1539.0625 0.15625)"/>
    </g>
   </g>
   <g id="legend_1">
    <g id="line2d_136">
     <path d="M 39.797344 26.745 
L 47.297344 26.745 
L 54.797344 26.745 
" style="fill: none; stroke: #0f4d92; stroke-width: 1.6; stroke-linecap: square"/>
     <g>
      <use xlink:href="#me8cf390d35" x="47.297344" y="26.745" style="fill: #0f4d92; stroke: #0f4d92"/>
     </g>
    </g>
    <g id="text_19">
     <!-- 总完成时间 $T$ -->
     <g transform="translate(60.797344 29.37) scale(0.075 -0.075)">
      <use xlink:href="#MicrosoftYaHei-6c8" transform="translate(0 0.359375)"/>
      <use xlink:href="#MicrosoftYaHei-60f" transform="translate(100 0.359375)"/>
      <use xlink:href="#MicrosoftYaHei-6e8" transform="translate(200 0.359375)"/>
      <use xlink:href="#MicrosoftYaHei-79e" transform="translate(300 0.359375)"/>
      <use xlink:href="#MicrosoftYaHei-b7f" transform="translate(400 0.359375)"/>
      <use xlink:href="#MicrosoftYaHei-3" transform="translate(500 0.359375)"/>
      <use xlink:href="#DejaVuSans-Oblique-37" transform="translate(529.589844 0.359375)"/>
     </g>
    </g>
    <g id="line2d_137">
     <path d="M 39.797344 38.646416 
L 47.297344 38.646416 
L 54.797344 38.646416 
" style="fill: none; stroke-dasharray: 5.92,2.56; stroke-dashoffset: 0; stroke: #e69f00; stroke-width: 1.6"/>
     <defs>
      <path id="m083a95e5ce" d="M -1.75 1.75 
L 1.75 1.75 
L 1.75 -1.75 
L -1.75 -1.75 
z
" style="stroke: #e69f00; stroke-linejoin: miter"/>
     </defs>
     <g>
      <use xlink:href="#m083a95e5ce" x="47.297344" y="38.646416" style="fill: #e69f00; stroke: #e69f00; stroke-linejoin: miter"/>
     </g>
    </g>
    <g id="text_20">
     <!-- 负载 Gini -->
     <g transform="translate(60.797344 41.271416) scale(0.075 -0.075)">
      <defs>
       <path id="MicrosoftYaHei-abf" d="M 963 3353 
L 3250 3353 
Q 3556 3659 4031 4216 
L 1819 4216 
Q 1163 3503 463 3009 
Q 325 3172 94 3384 
Q 1356 4303 2094 5334 
L 2600 5147 
Q 2406 4891 2213 4659 
L 4700 4659 
L 4700 4241 
Q 4294 3778 3881 3353 
L 5600 3353 
L 5600 641 
L 5100 641 
L 5100 2909 
L 1463 2909 
L 1463 603 
L 963 603 
L 963 3353 
z
M 188 -403 
Q 1806 -97 2550 422 
Q 3019 728 3019 1603 
L 3019 2609 
L 3525 2609 
L 3525 1716 
Q 3525 1297 3469 997 
Q 4906 334 6163 -416 
L 5831 -878 
Q 4513 -53 3325 534 
Q 2863 -391 475 -891 
Q 344 -653 188 -403 
z
" transform="scale(0.015625)"/>
       <path id="MicrosoftYaHei-afa" d="M 2881 -416 
Q 3622 91 4213 806 
Q 3894 1769 3806 3234 
L 125 3234 
L 125 3653 
L 1681 3653 
L 1681 4234 
L 381 4234 
L 381 4628 
L 1681 4628 
L 1681 5266 
L 2144 5266 
L 2144 4628 
L 3375 4628 
L 3375 4234 
L 2144 4234 
L 2144 3653 
L 3781 3653 
Q 3744 4397 3713 5297 
L 4194 5297 
Q 4197 4419 4241 3653 
L 6319 3653 
L 6319 3234 
L 4266 3234 
Q 4331 2081 4563 1269 
Q 5034 1941 5394 2766 
L 5825 2566 
Q 5344 1531 4744 738 
Q 4938 278 5200 -34 
Q 5363 -222 5500 -222 
Q 5669 -222 5725 28 
Q 5800 366 5869 878 
Q 6119 766 6319 709 
Q 6238 178 6138 -234 
Q 5981 -791 5581 -791 
Q 5125 -791 4713 -209 
Q 4544 22 4406 319 
Q 3869 -297 3250 -741 
Q 3063 -528 2881 -416 
z
M 1006 1472 
L 1863 1472 
L 1863 2047 
L 2306 2047 
L 2306 1472 
L 3488 1472 
L 3488 1078 
L 2306 1078 
L 2306 497 
Q 2878 544 3513 597 
Q 3494 397 3494 191 
Q 2931 153 2306 100 
L 2306 -816 
L 1863 -816 
L 1863 59 
Q 1128 -3 313 -91 
L 213 359 
Q 956 400 1863 466 
L 1863 1078 
L 488 1078 
L 488 1484 
Q 741 1813 984 2216 
L 275 2216 
L 275 2609 
L 1213 2609 
Q 1366 2888 1513 3197 
L 1975 3053 
Q 1847 2819 1725 2609 
L 3538 2609 
L 3538 2216 
L 1491 2216 
Q 1231 1791 1006 1472 
z
M 4613 4841 
L 4919 5147 
Q 5550 4672 5944 4303 
L 5588 3941 
Q 5163 4397 4613 4841 
z
" transform="scale(0.015625)"/>
      </defs>
      <use xlink:href="#MicrosoftYaHei-abf"/>
      <use xlink:href="#MicrosoftYaHei-afa" transform="translate(100 0)"/>
      <use xlink:href="#MicrosoftYaHei-3" transform="translate(200 0)"/>
      <use xlink:href="#MicrosoftYaHei-2d" transform="translate(229.59375 0)"/>
      <use xlink:href="#MicrosoftYaHei-4f" transform="translate(303.953125 0)"/>
      <use xlink:href="#MicrosoftYaHei-54" transform="translate(330.5625 0)"/>
      <use xlink:href="#MicrosoftYaHei-4f" transform="translate(392.1875 0)"/>
     </g>
    </g>
   </g>
  </g>
  <g id="axes_2">
   <g id="matplotlib.axis_3">
    <g id="ytick_30">
     <g id="line2d_138">
      <defs>
       <path id="mb3079d658d" d="M 0 0 
L -3 0 
" style="stroke: #000000; stroke-width: 0.5"/>
      </defs>
      <g>
       <use xlink:href="#mb3079d658d" x="296.669391" y="145.494803" style="stroke: #000000; stroke-width: 0.5"/>
      </g>
     </g>
     <g id="text_21">
      <!-- $\mathdefault{0.00}$ -->
      <g style="fill: #e69f00" transform="translate(300.169391 148.539847) scale(0.075 -0.075)">
       <defs>
        <path id="MicrosoftYaHei-14" d="M 372 322 
Q 372 491 487 606 
Q 603 722 775 722 
Q 950 722 1065 605 
Q 1181 488 1181 322 
Q 1181 159 1065 42 
Q 950 -75 772 -75 
Q 600 -75 486 42 
Q 372 159 372 322 
z
" transform="scale(0.015625)"/>
       </defs>
       <use xlink:href="#MicrosoftYaHei-16" transform="translate(0 0.09375)"/>
       <use xlink:href="#MicrosoftYaHei-14" transform="translate(58.642578 0.09375)"/>
       <use xlink:href="#MicrosoftYaHei-16" transform="translate(82.714844 0.09375)"/>
       <use xlink:href="#MicrosoftYaHei-16" transform="translate(141.357422 0.09375)"/>
      </g>
     </g>
    </g>
    <g id="ytick_31">
     <g id="line2d_139">
      <g>
       <use xlink:href="#mb3079d658d" x="296.669391" y="128.642252" style="stroke: #000000; stroke-width: 0.5"/>
      </g>
     </g>
     <g id="text_22">
      <!-- $\mathdefault{0.02}$ -->
      <g style="fill: #e69f00" transform="translate(300.169391 131.687296) scale(0.075 -0.075)">
       <use xlink:href="#MicrosoftYaHei-16" transform="translate(0 0.09375)"/>
       <use xlink:href="#MicrosoftYaHei-14" transform="translate(58.642578 0.09375)"/>
       <use xlink:href="#MicrosoftYaHei-16" transform="translate(82.714844 0.09375)"/>
       <use xlink:href="#MicrosoftYaHei-18" transform="translate(141.357422 0.09375)"/>
      </g>
     </g>
    </g>
    <g id="ytick_32">
     <g id="line2d_140">
      <g>
       <use xlink:href="#mb3079d658d" x="296.669391" y="111.789701" style="stroke: #000000; stroke-width: 0.5"/>
      </g>
     </g>
     <g id="text_23">
      <!-- $\mathdefault{0.04}$ -->
      <g style="fill: #e69f00" transform="translate(300.169391 114.834745) scale(0.075 -0.075)">
       <use xlink:href="#MicrosoftYaHei-16" transform="translate(0 0.09375)"/>
       <use xlink:href="#MicrosoftYaHei-14" transform="translate(58.642578 0.09375)"/>
       <use xlink:href="#MicrosoftYaHei-16" transform="translate(82.714844 0.09375)"/>
       <use xlink:href="#MicrosoftYaHei-1a" transform="translate(141.357422 0.09375)"/>
      </g>
     </g>
    </g>
    <g id="ytick_33">
     <g id="line2d_141">
      <g>
       <use xlink:href="#mb3079d658d" x="296.669391" y="94.93715" style="stroke: #000000; stroke-width: 0.5"/>
      </g>
     </g>
     <g id="text_24">
      <!-- $\mathdefault{0.06}$ -->
      <g style="fill: #e69f00" transform="translate(300.169391 97.982194) scale(0.075 -0.075)">
       <use xlink:href="#MicrosoftYaHei-16" transform="translate(0 0.09375)"/>
       <use xlink:href="#MicrosoftYaHei-14" transform="translate(58.642578 0.09375)"/>
       <use xlink:href="#MicrosoftYaHei-16" transform="translate(82.714844 0.09375)"/>
       <use xlink:href="#MicrosoftYaHei-1c" transform="translate(141.357422 0.09375)"/>
      </g>
     </g>
    </g>
    <g id="ytick_34">
     <g id="line2d_142">
      <g>
       <use xlink:href="#mb3079d658d" x="296.669391" y="78.084599" style="stroke: #000000; stroke-width: 0.5"/>
      </g>
     </g>
     <g id="text_25">
      <!-- $\mathdefault{0.08}$ -->
      <g style="fill: #e69f00" transform="translate(300.169391 81.129643) scale(0.075 -0.075)">
       <use xlink:href="#MicrosoftYaHei-16" transform="translate(0 0.09375)"/>
       <use xlink:href="#MicrosoftYaHei-14" transform="translate(58.642578 0.09375)"/>
       <use xlink:href="#MicrosoftYaHei-16" transform="translate(82.714844 0.09375)"/>
       <use xlink:href="#MicrosoftYaHei-1e" transform="translate(141.357422 0.09375)"/>
      </g>
     </g>
    </g>
    <g id="ytick_35">
     <g id="line2d_143">
      <g>
       <use xlink:href="#mb3079d658d" x="296.669391" y="61.232048" style="stroke: #000000; stroke-width: 0.5"/>
      </g>
     </g>
     <g id="text_26">
      <!-- $\mathdefault{0.10}$ -->
      <g style="fill: #e69f00" transform="translate(300.169391 64.277092) scale(0.075 -0.075)">
       <use xlink:href="#MicrosoftYaHei-16" transform="translate(0 0.703125)"/>
       <use xlink:href="#MicrosoftYaHei-14" transform="translate(58.642578 0.703125)"/>
       <use xlink:href="#MicrosoftYaHei-17" transform="translate(82.714844 0.703125)"/>
       <use xlink:href="#MicrosoftYaHei-16" transform="translate(141.357422 0.703125)"/>
      </g>
     </g>
    </g>
    <g id="ytick_36">
     <g id="line2d_144">
      <g>
       <use xlink:href="#mb3079d658d" x="296.669391" y="44.379497" style="stroke: #000000; stroke-width: 0.5"/>
      </g>
     </g>
     <g id="text_27">
      <!-- $\mathdefault{0.12}$ -->
      <g style="fill: #e69f00" transform="translate(300.169391 47.424541) scale(0.075 -0.075)">
       <use xlink:href="#MicrosoftYaHei-16" transform="translate(0 0.703125)"/>
       <use xlink:href="#MicrosoftYaHei-14" transform="translate(58.642578 0.703125)"/>
       <use xlink:href="#MicrosoftYaHei-17" transform="translate(82.714844 0.703125)"/>
       <use xlink:href="#MicrosoftYaHei-18" transform="translate(141.357422 0.703125)"/>
      </g>
     </g>
    </g>
    <g id="ytick_37">
     <g id="line2d_145">
      <g>
       <use xlink:href="#mb3079d658d" x="296.669391" y="27.526946" style="stroke: #000000; stroke-width: 0.5"/>
      </g>
     </g>
     <g id="text_28">
      <!-- $\mathdefault{0.14}$ -->
      <g style="fill: #e69f00" transform="translate(300.169391 30.57199) scale(0.075 -0.075)">
       <use xlink:href="#MicrosoftYaHei-16" transform="translate(0 0.703125)"/>
       <use xlink:href="#MicrosoftYaHei-14" transform="translate(58.642578 0.703125)"/>
       <use xlink:href="#MicrosoftYaHei-17" transform="translate(82.714844 0.703125)"/>
       <use xlink:href="#MicrosoftYaHei-1a" transform="translate(141.357422 0.703125)"/>
      </g>
     </g>
    </g>
    <g id="ytick_38">
     <g id="line2d_146">
      <defs>
       <path id="m2e365fbd40" d="M 0 0 
L -1.5 0 
" style="stroke: #000000; stroke-width: 0.5"/>
      </defs>
      <g>
       <use xlink:href="#m2e365fbd40" x="296.669391" y="149.707941" style="stroke: #000000; stroke-width: 0.5"/>
      </g>
     </g>
    </g>
    <g id="ytick_39">
     <g id="line2d_147">
      <g>
       <use xlink:href="#m2e365fbd40" x="296.669391" y="141.281665" style="stroke: #000000; stroke-width: 0.5"/>
      </g>
     </g>
    </g>
    <g id="ytick_40">
     <g id="line2d_148">
      <g>
       <use xlink:href="#m2e365fbd40" x="296.669391" y="137.068528" style="stroke: #000000; stroke-width: 0.5"/>
      </g>
     </g>
    </g>
    <g id="ytick_41">
     <g id="line2d_149">
      <g>
       <use xlink:href="#m2e365fbd40" x="296.669391" y="132.85539" style="stroke: #000000; stroke-width: 0.5"/>
      </g>
     </g>
    </g>
    <g id="ytick_42">
     <g id="line2d_150">
      <g>
       <use xlink:href="#m2e365fbd40" x="296.669391" y="124.429114" style="stroke: #000000; stroke-width: 0.5"/>
      </g>
     </g>
    </g>
    <g id="ytick_43">
     <g id="line2d_151">
      <g>
       <use xlink:href="#m2e365fbd40" x="296.669391" y="120.215977" style="stroke: #000000; stroke-width: 0.5"/>
      </g>
     </g>
    </g>
    <g id="ytick_44">
     <g id="line2d_152">
      <g>
       <use xlink:href="#m2e365fbd40" x="296.669391" y="116.002839" style="stroke: #000000; stroke-width: 0.5"/>
      </g>
     </g>
    </g>
    <g id="ytick_45">
     <g id="line2d_153">
      <g>
       <use xlink:href="#m2e365fbd40" x="296.669391" y="107.576563" style="stroke: #000000; stroke-width: 0.5"/>
      </g>
     </g>
    </g>
    <g id="ytick_46">
     <g id="line2d_154">
      <g>
       <use xlink:href="#m2e365fbd40" x="296.669391" y="103.363426" style="stroke: #000000; stroke-width: 0.5"/>
      </g>
     </g>
    </g>
    <g id="ytick_47">
     <g id="line2d_155">
      <g>
       <use xlink:href="#m2e365fbd40" x="296.669391" y="99.150288" style="stroke: #000000; stroke-width: 0.5"/>
      </g>
     </g>
    </g>
    <g id="ytick_48">
     <g id="line2d_156">
      <g>
       <use xlink:href="#m2e365fbd40" x="296.669391" y="90.724013" style="stroke: #000000; stroke-width: 0.5"/>
      </g>
     </g>
    </g>
    <g id="ytick_49">
     <g id="line2d_157">
      <g>
       <use xlink:href="#m2e365fbd40" x="296.669391" y="86.510875" style="stroke: #000000; stroke-width: 0.5"/>
      </g>
     </g>
    </g>
    <g id="ytick_50">
     <g id="line2d_158">
      <g>
       <use xlink:href="#m2e365fbd40" x="296.669391" y="82.297737" style="stroke: #000000; stroke-width: 0.5"/>
      </g>
     </g>
    </g>
    <g id="ytick_51">
     <g id="line2d_159">
      <g>
       <use xlink:href="#m2e365fbd40" x="296.669391" y="73.871462" style="stroke: #000000; stroke-width: 0.5"/>
      </g>
     </g>
    </g>
    <g id="ytick_52">
     <g id="line2d_160">
      <g>
       <use xlink:href="#m2e365fbd40" x="296.669391" y="69.658324" style="stroke: #000000; stroke-width: 0.5"/>
      </g>
     </g>
    </g>
    <g id="ytick_53">
     <g id="line2d_161">
      <g>
       <use xlink:href="#m2e365fbd40" x="296.669391" y="65.445186" style="stroke: #000000; stroke-width: 0.5"/>
      </g>
     </g>
    </g>
    <g id="ytick_54">
     <g id="line2d_162">
      <g>
       <use xlink:href="#m2e365fbd40" x="296.669391" y="57.018911" style="stroke: #000000; stroke-width: 0.5"/>
      </g>
     </g>
    </g>
    <g id="ytick_55">
     <g id="line2d_163">
      <g>
       <use xlink:href="#m2e365fbd40" x="296.669391" y="52.805773" style="stroke: #000000; stroke-width: 0.5"/>
      </g>
     </g>
    </g>
    <g id="ytick_56">
     <g id="line2d_164">
      <g>
       <use xlink:href="#m2e365fbd40" x="296.669391" y="48.592635" style="stroke: #000000; stroke-width: 0.5"/>
      </g>
     </g>
    </g>
    <g id="ytick_57">
     <g id="line2d_165">
      <g>
       <use xlink:href="#m2e365fbd40" x="296.669391" y="40.16636" style="stroke: #000000; stroke-width: 0.5"/>
      </g>
     </g>
    </g>
    <g id="ytick_58">
     <g id="line2d_166">
      <g>
       <use xlink:href="#m2e365fbd40" x="296.669391" y="35.953222" style="stroke: #000000; stroke-width: 0.5"/>
      </g>
     </g>
    </g>
    <g id="ytick_59">
     <g id="line2d_167">
      <g>
       <use xlink:href="#m2e365fbd40" x="296.669391" y="31.740084" style="stroke: #000000; stroke-width: 0.5"/>
      </g>
     </g>
    </g>
    <g id="ytick_60">
     <g id="line2d_168">
      <g>
       <use xlink:href="#m2e365fbd40" x="296.669391" y="23.313809" style="stroke: #000000; stroke-width: 0.5"/>
      </g>
     </g>
    </g>
    <g id="ytick_61">
     <g id="line2d_169">
      <g>
       <use xlink:href="#m2e365fbd40" x="296.669391" y="19.100671" style="stroke: #000000; stroke-width: 0.5"/>
      </g>
     </g>
    </g>
    <g id="text_29">
     <!-- 负载 Gini -->
     <g style="fill: #e69f00" transform="translate(325.836891 100.734867) rotate(-90) scale(0.08 -0.08)">
      <use xlink:href="#MicrosoftYaHei-abf"/>
      <use xlink:href="#MicrosoftYaHei-afa" transform="translate(100 0)"/>
      <use xlink:href="#MicrosoftYaHei-3" transform="translate(200 0)"/>
      <use xlink:href="#MicrosoftYaHei-2d" transform="translate(229.59375 0)"/>
      <use xlink:href="#MicrosoftYaHei-4f" transform="translate(303.953125 0)"/>
      <use xlink:href="#MicrosoftYaHei-54" transform="translate(330.5625 0)"/>
      <use xlink:href="#MicrosoftYaHei-4f" transform="translate(392.1875 0)"/>
     </g>
    </g>
   </g>
   <g id="line2d_170">
    <path d="M 45.030164 22.471181 
L 52.519427 55.333655 
L 60.008689 79.769854 
L 74.987215 145.494803 
L 104.944266 145.494803 
L 164.858367 145.494803 
L 284.686571 145.494803 
" clip-path="url(#pa4238b82c9)" style="fill: none; stroke-dasharray: 5.92,2.56; stroke-dashoffset: 0; stroke: #e69f00; stroke-width: 1.6"/>
    <g clip-path="url(#pa4238b82c9)">
     <use xlink:href="#m083a95e5ce" x="45.030164" y="22.471181" style="fill: #e69f00; stroke: #e69f00; stroke-linejoin: miter"/>
     <use xlink:href="#m083a95e5ce" x="52.519427" y="55.333655" style="fill: #e69f00; stroke: #e69f00; stroke-linejoin: miter"/>
     <use xlink:href="#m083a95e5ce" x="60.008689" y="79.769854" style="fill: #e69f00; stroke: #e69f00; stroke-linejoin: miter"/>
     <use xlink:href="#m083a95e5ce" x="74.987215" y="145.494803" style="fill: #e69f00; stroke: #e69f00; stroke-linejoin: miter"/>
     <use xlink:href="#m083a95e5ce" x="104.944266" y="145.494803" style="fill: #e69f00; stroke: #e69f00; stroke-linejoin: miter"/>
     <use xlink:href="#m083a95e5ce" x="164.858367" y="145.494803" style="fill: #e69f00; stroke: #e69f00; stroke-linejoin: miter"/>
     <use xlink:href="#m083a95e5ce" x="284.686571" y="145.494803" style="fill: #e69f00; stroke: #e69f00; stroke-linejoin: miter"/>
    </g>
   </g>
   <g id="patch_7">
    <path d="M 33.047344 151.645984 
L 33.047344 16.32 
" style="fill: none; stroke: #000000; stroke-width: 0.5; stroke-linejoin: miter; stroke-linecap: square"/>
   </g>
   <g id="patch_8">
    <path d="M 296.669391 151.645984 
L 296.669391 16.32 
" style="fill: none; stroke: #000000; stroke-width: 0.5; stroke-linejoin: miter; stroke-linecap: square"/>
   </g>
   <g id="patch_9">
    <path d="M 33.047344 151.645984 
L 296.669391 151.645984 
" style="fill: none; stroke: #000000; stroke-width: 0.5; stroke-linejoin: miter; stroke-linecap: square"/>
   </g>
   <g id="patch_10">
    <path d="M 33.047344 16.32 
L 296.669391 16.32 
" style="fill: none; stroke: #000000; stroke-width: 0.5; stroke-linejoin: miter; stroke-linecap: square"/>
   </g>
  </g>
 </g>
 <defs>
  <clipPath id="pa4238b82c9">
   <rect x="33.047344" y="16.32" width="263.622047" height="135.325984"/>
  </clipPath>
 </defs>
</svg>
