<?xml version="1.0" encoding="utf-8" standalone="no"?>
<!DOCTYPE svg PUBLIC "-//W3C//DTD SVG 1.1//EN"
  "http://www.w3.org/Graphics/SVG/1.1/DTD/svg11.dtd">
<svg xmlns:xlink="http://www.w3.org/1999/xlink" width="598.68pt" height="159.562pt" viewBox="0 0 598.68 159.562" xmlns="http://www.w3.org/2000/svg" version="1.1">
 <metadata>
  <rdf:RDF xmlns:dc="http://purl.org/dc/elements/1.1/" xmlns:cc="http://creativecommons.org/ns#" xmlns:rdf="http://www.w3.org/1999/02/22-rdf-syntax-ns#">
   <cc:Work>
    <dc:type rdf:resource="http://purl.org/dc/dcmitype/StillImage"/>
    <dc:format>image/svg+xml</dc:format>
    <dc:creator>
     <cc:Agent>
      <dc:title>Matplotlib v3.11.2, https://matplotlib.org/</dc:title>
     </cc:Agent>
    </dc:creator>
   </cc:Work>
  </rdf:RDF>
 </metadata>
 <defs>
  <style type="text/css">*{stroke-linejoin: round; stroke-linecap: butt}</style>
 </defs>
 <g id="figure_1">
  <g id="patch_1">
   <path d="M 0 159.562
L 598.68 159.562
L 598.68 -0
L 0 -0
z
" style="fill: #ffffff"/>
  </g>
  <g id="axes_1">
   <g id="table_1">
    <g id="patch_2">
     <path d="M 3.6 59.392
L 210.618 59.392
L 210.618 36.592
L 3.6 36.592
z
" style="fill: #edf3f9; stroke: #ffffff; stroke-linejoin: miter"/>
    </g>
    <g id="text_1">
     <text style="font-weight: 700; font-size: 9px; font-family: 'Libertinus Sans', 'Arial', 'Helvetica', 'DejaVu Sans', sans-serif; text-anchor: start; fill: #24364b" x="24.3018" y="50.908" transform="rotate(-0 24.3018 50.908)">Policy</text>
    </g>
    <g id="patch_3">
     <path d="M 210.618 59.392
L 281.5956 59.392
L 281.5956 36.592
L 210.618 36.592
z
" style="fill: #edf3f9; stroke: #ffffff; stroke-linejoin: miter"/>
    </g>
    <g id="text_2">
     <text style="font-weight: 700; font-size: 9px; font-family: 'Libertinus Sans', 'Arial', 'Helvetica', 'DejaVu Sans', sans-serif; text-anchor: middle; fill: #24364b" x="246.1068" y="50.908" transform="rotate(-0 246.1068 50.908)">Mean (s)</text>
    </g>
    <g id="patch_4">
     <path d="M 281.5956 59.392
L 370.3176 59.392
L 370.3176 36.592
L 281.5956 36.592
z
" style="fill: #edf3f9; stroke: #ffffff; stroke-linejoin: miter"/>
    </g>
    <g id="text_3">
     <text style="font-weight: 700; font-size: 9px; font-family: 'Libertinus Sans', 'Arial', 'Helvetica', 'DejaVu Sans', sans-serif; text-anchor: middle; fill: #24364b" x="325.9566" y="50.908" transform="rotate(-0 325.9566 50.908)">Sample SD (s)</text>
    </g>
    <g id="patch_5">
     <path d="M 370.3176 59.392
L 512.2728 59.392
L 512.2728 36.592
L 370.3176 36.592
z
" style="fill: #edf3f9; stroke: #ffffff; stroke-linejoin: miter"/>
    </g>
    <g id="text_4">
     <text style="font-weight: 700; font-size: 9px; font-family: 'Libertinus Sans', 'Arial', 'Helvetica', 'DejaVu Sans', sans-serif; text-anchor: middle; fill: #24364b" x="441.2952" y="50.908" transform="rotate(-0 441.2952 50.908)">95% CI of mean (s)</text>
    </g>
    <g id="patch_6">
     <path d="M 512.2728 59.392
L 595.08 59.392
L 595.08 36.592
L 512.2728 36.592
z
" style="fill: #edf3f9; stroke: #ffffff; stroke-linejoin: miter"/>
    </g>
    <g id="text_5">
     <text style="font-weight: 700; font-size: 9px; font-family: 'Libertinus Sans', 'Arial', 'Helvetica', 'DejaVu Sans', sans-serif; text-anchor: middle; fill: #24364b" x="553.6764" y="50.908" transform="rotate(-0 553.6764 50.908)">Mean / ref.</text>
    </g>
    <g id="patch_7">
     <path d="M 3.6 82.192
L 210.618 82.192
L 210.618 59.392
L 3.6 59.392
z
" style="fill: #f7f9fc; stroke: #ffffff; stroke-linejoin: miter"/>
    </g>
    <g id="text_6">
     <text style="font-size: 9px; font-family: 'Libertinus Sans', 'Arial', 'Helvetica', 'DejaVu Sans', sans-serif; text-anchor: start" x="24.3018" y="73.708" transform="rotate(-0 24.3018 73.708)">Random once</text>
    </g>
    <g id="patch_8">
     <path d="M 210.618 82.192
L 281.5956 82.192
L 281.5956 59.392
L 210.618 59.392
z
" style="fill: #f7f9fc; stroke: #ffffff; stroke-linejoin: miter"/>
    </g>
    <g id="text_7">
     <text style="font-size: 9px; font-family: 'Libertinus Sans', 'Arial', 'Helvetica', 'DejaVu Sans', sans-serif; text-anchor: middle" x="246.1068" y="73.708" transform="rotate(-0 246.1068 73.708)">223.22</text>
    </g>
    <g id="patch_9">
     <path d="M 281.5956 82.192
L 370.3176 82.192
L 370.3176 59.392
L 281.5956 59.392
z
" style="fill: #f7f9fc; stroke: #ffffff; stroke-linejoin: miter"/>
    </g>
    <g id="text_8">
     <text style="font-size: 9px; font-family: 'Libertinus Sans', 'Arial', 'Helvetica', 'DejaVu Sans', sans-serif; text-anchor: middle" x="325.9566" y="73.708" transform="rotate(-0 325.9566 73.708)">15.55</text>
    </g>
    <g id="patch_10">
     <path d="M 370.3176 82.192
L 512.2728 82.192
L 512.2728 59.392
L 370.3176 59.392
z
" style="fill: #f7f9fc; stroke: #ffffff; stroke-linejoin: miter"/>
    </g>
    <g id="text_9">
     <text style="font-size: 9px; font-family: 'Libertinus Sans', 'Arial', 'Helvetica', 'DejaVu Sans', sans-serif; text-anchor: middle" x="441.2952" y="73.708" transform="rotate(-0 441.2952 73.708)">203.91 to 242.53</text>
    </g>
    <g id="patch_11">
     <path d="M 512.2728 82.192
L 595.08 82.192
L 595.08 59.392
L 512.2728 59.392
z
" style="fill: #f7f9fc; stroke: #ffffff; stroke-linejoin: miter"/>
    </g>
    <g id="text_10">
     <text style="font-size: 9px; font-family: 'Libertinus Sans', 'Arial', 'Helvetica', 'DejaVu Sans', sans-serif; text-anchor: middle" x="553.6764" y="73.708" transform="rotate(-0 553.6764 73.708)">1.47</text>
    </g>
    <g id="patch_12">
     <path d="M 3.6 104.992
L 210.618 104.992
L 210.618 82.192
L 3.6 82.192
z
" style="fill: #f7f9fc; stroke: #ffffff; stroke-linejoin: miter"/>
    </g>
    <g id="text_11">
     <text style="font-size: 9px; font-family: 'Libertinus Sans', 'Arial', 'Helvetica', 'DejaVu Sans', sans-serif; text-anchor: start" x="24.3018" y="96.508" transform="rotate(-0 24.3018 96.508)">Nearest once (3 equivalent rules)</text>
    </g>
    <g id="patch_13">
     <path d="M 210.618 104.992
L 281.5956 104.992
L 281.5956 82.192
L 210.618 82.192
z
" style="fill: #f7f9fc; stroke: #ffffff; stroke-linejoin: miter"/>
    </g>
    <g id="text_12">
     <text style="font-size: 9px; font-family: 'Libertinus Sans', 'Arial', 'Helvetica', 'DejaVu Sans', sans-serif; text-anchor: middle" x="246.1068" y="96.508" transform="rotate(-0 246.1068 96.508)">426.66</text>
    </g>
    <g id="patch_14">
     <path d="M 281.5956 104.992
L 370.3176 104.992
L 370.3176 82.192
L 281.5956 82.192
z
" style="fill: #f7f9fc; stroke: #ffffff; stroke-linejoin: miter"/>
    </g>
    <g id="text_13">
     <text style="font-size: 9px; font-family: 'Libertinus Sans', 'Arial', 'Helvetica', 'DejaVu Sans', sans-serif; text-anchor: middle" x="325.9566" y="96.508" transform="rotate(-0 325.9566 96.508)">5.98</text>
    </g>
    <g id="patch_15">
     <path d="M 370.3176 104.992
L 512.2728 104.992
L 512.2728 82.192
L 370.3176 82.192
z
" style="fill: #f7f9fc; stroke: #ffffff; stroke-linejoin: miter"/>
    </g>
    <g id="text_14">
     <text style="font-size: 9px; font-family: 'Libertinus Sans', 'Arial', 'Helvetica', 'DejaVu Sans', sans-serif; text-anchor: middle" x="441.2952" y="96.508" transform="rotate(-0 441.2952 96.508)">419.24 to 434.08</text>
    </g>
    <g id="patch_16">
     <path d="M 512.2728 104.992
L 595.08 104.992
L 595.08 82.192
L 512.2728 82.192
z
" style="fill: #f7f9fc; stroke: #ffffff; stroke-linejoin: miter"/>
    </g>
    <g id="text_15">
     <text style="font-size: 9px; font-family: 'Libertinus Sans', 'Arial', 'Helvetica', 'DejaVu Sans', sans-serif; text-anchor: middle" x="553.6764" y="96.508" transform="rotate(-0 553.6764 96.508)">2.80</text>
    </g>
    <g id="patch_17">
     <path d="M 3.6 127.792
L 210.618 127.792
L 210.618 104.992
L 3.6 104.992
z
" style="fill: #f7f9fc; stroke: #ffffff; stroke-linejoin: miter"/>
    </g>
    <g id="text_16">
     <text style="font-size: 9px; font-family: 'Libertinus Sans', 'Arial', 'Helvetica', 'DejaVu Sans', sans-serif; text-anchor: start" x="24.3018" y="119.308" transform="rotate(-0 24.3018 119.308)">Shortest queue on arrival</text>
    </g>
    <g id="patch_18">
     <path d="M 210.618 127.792
L 281.5956 127.792
L 281.5956 104.992
L 210.618 104.992
z
" style="fill: #f7f9fc; stroke: #ffffff; stroke-linejoin: miter"/>
    </g>
    <g id="text_17">
     <text style="font-size: 9px; font-family: 'Libertinus Sans', 'Arial', 'Helvetica', 'DejaVu Sans', sans-serif; text-anchor: middle" x="246.1068" y="119.308" transform="rotate(-0 246.1068 119.308)">426.66</text>
    </g>
    <g id="patch_19">
     <path d="M 281.5956 127.792
L 370.3176 127.792
L 370.3176 104.992
L 281.5956 104.992
z
" style="fill: #f7f9fc; stroke: #ffffff; stroke-linejoin: miter"/>
    </g>
    <g id="text_18">
     <text style="font-size: 9px; font-family: 'Libertinus Sans', 'Arial', 'Helvetica', 'DejaVu Sans', sans-serif; text-anchor: middle" x="325.9566" y="119.308" transform="rotate(-0 325.9566 119.308)">5.98</text>
    </g>
    <g id="patch_20">
     <path d="M 370.3176 127.792
L 512.2728 127.792
L 512.2728 104.992
L 370.3176 104.992
z
" style="fill: #f7f9fc; stroke: #ffffff; stroke-linejoin: miter"/>
    </g>
    <g id="text_19">
     <text style="font-size: 9px; font-family: 'Libertinus Sans', 'Arial', 'Helvetica', 'DejaVu Sans', sans-serif; text-anchor: middle" x="441.2952" y="119.308" transform="rotate(-0 441.2952 119.308)">419.24 to 434.08</text>
    </g>
    <g id="patch_21">
     <path d="M 512.2728 127.792
L 595.08 127.792
L 595.08 104.992
L 512.2728 104.992
z
" style="fill: #f7f9fc; stroke: #ffffff; stroke-linejoin: miter"/>
    </g>
    <g id="text_20">
     <text style="font-size: 9px; font-family: 'Libertinus Sans', 'Arial', 'Helvetica', 'DejaVu Sans', sans-serif; text-anchor: middle" x="553.6764" y="119.308" transform="rotate(-0 553.6764 119.308)">2.80</text>
    </g>
    <g id="patch_22">
     <path d="M 3.6 150.592
L 210.618 150.592
L 210.618 127.792
L 3.6 127.792
z
" style="fill: #edf3f9; stroke: #ffffff; stroke-linejoin: miter"/>
    </g>
    <g id="text_21">
     <text style="font-size: 9px; font-family: 'Libertinus Sans', 'Arial', 'Helvetica', 'DejaVu Sans', sans-serif; text-anchor: start" x="24.3018" y="142.108" transform="rotate(-0 24.3018 142.108)">Dynamic distance + queue</text>
    </g>
    <g id="patch_23">
     <path d="M 210.618 150.592
L 281.5956 150.592
L 281.5956 127.792
L 210.618 127.792
z
" style="fill: #edf3f9; stroke: #ffffff; stroke-linejoin: miter"/>
    </g>
    <g id="text_22">
     <text style="font-size: 9px; font-family: 'Libertinus Sans', 'Arial', 'Helvetica', 'DejaVu Sans', sans-serif; text-anchor: middle" x="246.1068" y="142.108" transform="rotate(-0 246.1068 142.108)">184.54</text>
    </g>
    <g id="patch_24">
     <path d="M 281.5956 150.592
L 370.3176 150.592
L 370.3176 127.792
L 281.5956 127.792
z
" style="fill: #edf3f9; stroke: #ffffff; stroke-linejoin: miter"/>
    </g>
    <g id="text_23">
     <text style="font-size: 9px; font-family: 'Libertinus Sans', 'Arial', 'Helvetica', 'DejaVu Sans', sans-serif; text-anchor: middle" x="325.9566" y="142.108" transform="rotate(-0 325.9566 142.108)">15.87</text>
    </g>
    <g id="patch_25">
     <path d="M 370.3176 150.592
L 512.2728 150.592
L 512.2728 127.792
L 370.3176 127.792
z
" style="fill: #edf3f9; stroke: #ffffff; stroke-linejoin: miter"/>
    </g>
    <g id="text_24">
     <text style="font-size: 9px; font-family: 'Libertinus Sans', 'Arial', 'Helvetica', 'DejaVu Sans', sans-serif; text-anchor: middle" x="441.2952" y="142.108" transform="rotate(-0 441.2952 142.108)">164.84 to 204.24</text>
    </g>
    <g id="patch_26">
     <path d="M 512.2728 150.592
L 595.08 150.592
L 595.08 127.792
L 512.2728 127.792
z
" style="fill: #edf3f9; stroke: #ffffff; stroke-linejoin: miter"/>
    </g>
    <g id="text_25">
     <text style="font-size: 9px; font-family: 'Libertinus Sans', 'Arial', 'Helvetica', 'DejaVu Sans', sans-serif; text-anchor: middle" x="553.6764" y="142.108" transform="rotate(-0 553.6764 142.108)">1.21</text>
    </g>
   </g>
   <g id="csf-tab_main-title-001">
    <text style="font-weight: 700; font-size: 13px; font-family: 'Libertinus Sans', 'Arial', 'Helvetica', 'DejaVu Sans', sans-serif; text-anchor: start; fill: #24364b" x="3.6" y="15.222" transform="rotate(-0 3.6 15.222)">Main comparison: five complete synthetic runs per policy</text>
   </g>
  </g>
 </g>
</svg>
